<?xml version="1.0" encoding="UTF-8" standalone="no"?><!DOCTYPE svg PUBLIC "-//W3C//DTD SVG 1.1//EN" "http://www.w3.org/Graphics/SVG/1.1/DTD/svg11.dtd"><svg width="100%" height="100%" viewBox="0 0 12058 3460" version="1.1" xmlns="http://www.w3.org/2000/svg" xmlns:xlink="http://www.w3.org/1999/xlink" xml:space="preserve" xmlns:serif="http://www.serif.com/" style="fill-rule:evenodd;clip-rule:evenodd;stroke-linejoin:round;stroke-miterlimit:2;"><path d="M7944.48,3128.87c-26.791,0 -50.375,13.462 -64.458,33.971c-17.958,-48.379 -64.541,-82.858 -119.166,-82.858c-70.167,-0 -127.042,56.883 -127.042,127.049l388.791,0c0,-43.17 -34.958,-78.162 -78.125,-78.162Z" style="fill:#ff6900;fill-rule:nonzero;"/><path d="M8235.81,2390.03c-11.584,-40.991 11.125,-95.045 45.25,-104.204c43.708,-11.712 95.625,34.242 130.292,-0.837c10.625,-10.763 16.916,-27.559 28.578,-36.513c26.713,-20.525 58.963,10.904 89.796,18.458c56.5,13.846 104.292,-54.625 160.917,-67.558c44.125,-10.079 92.208,18.484 113.625,67.508c11.459,26.117 19.458,60.992 42.75,67.596c19.959,5.65 38.167,-13.804 57.334,-22.591c42.249,-19.355 94.5,19.883 94.957,75.871l-763.499,2.27Z" style="fill:#ff6900;fill-rule:nonzero;"/><path d="M4822.4,1299.23c-104.875,54.146 -226.125,37.996 -337.292,15.505" style="fill:none;stroke:#d1d2dc;stroke-width:8.33px;"/><path d="M4787.85,1317.48c-44.124,15.2 -90.541,18.355 -136.333,25.938c-43.958,7.287 -87.375,17.871 -129.791,31.558c-82.501,26.625 -160.917,64.879 -232.917,113.171" style="fill:none;stroke:#d1d2dc;stroke-width:8.33px;"/><path d="M2775.83,2698.38l0,67.746l-101.887,0l-0,101.888l-101.888,-0l0,101.887l-101.887,0l-0,101.888l-101.888,-0l0,58.875" style="fill:none;stroke:#d1d2dc;stroke-width:8.33px;stroke-linejoin:miter;"/><path d="M2470.23,3071.68l166.983,0" style="fill:none;stroke:#d1d2dc;stroke-width:8.33px;stroke-linejoin:miter;"/><path d="M2572.72,2969.72l172.917,0" style="fill:none;stroke:#d1d2dc;stroke-width:8.33px;stroke-linejoin:miter;"/><path d="M2673.97,2867.99l184.954,-0" style="fill:none;stroke:#d1d2dc;stroke-width:8.33px;stroke-linejoin:miter;"/><path d="M2775.83,2766.12l167.925,0" style="fill:none;stroke:#d1d2dc;stroke-width:8.33px;stroke-linejoin:miter;"/><path d="M2877.72,2664.23l-101.892,-0l0,101.887" style="fill:none;stroke:#d1d2dc;stroke-width:8.33px;stroke-linejoin:miter;"/><path d="M2786.16,2995.93l265.041,-264.283" style="fill:none;stroke:#d1d2dc;stroke-width:8.33px;stroke-linejoin:miter;"/><path d="M8237.15,2853.97l167,0" style="fill:none;stroke:#d1d2dc;stroke-width:8.33px;stroke-linejoin:miter;"/><path d="M8339.65,2752.02l79.537,0" style="fill:none;stroke:#d1d2dc;stroke-width:8.33px;stroke-linejoin:miter;"/><path d="M8440.9,2650.28l195.499,-0" style="fill:none;stroke:#d1d2dc;stroke-width:8.33px;stroke-linejoin:miter;"/><path d="M8542.73,2548.42l167.958,0" style="fill:none;stroke:#d1d2dc;stroke-width:8.33px;stroke-linejoin:miter;"/><path d="M8542.73,2480.67l-0,67.746l-101.875,-0l-0,101.887l-101.88,0l-0,101.892l-101.871,0l0,101.888l-101.916,-0l-0,85.637l-101.917,0l0,83.888" style="fill:none;stroke:#d1d2dc;stroke-width:8.33px;stroke-linejoin:miter;"/><path d="M8792.1,2446.53l-249.374,-0l-0,101.887" style="fill:none;stroke:#d1d2dc;stroke-width:8.33px;stroke-linejoin:miter;"/><path d="M8577.98,2753.42l328.624,-327.712" style="fill:none;stroke:#d1d2dc;stroke-width:8.33px;stroke-linejoin:miter;"/><path d="M8135.19,2939.72l152.829,0" style="fill:none;stroke:#d1d2dc;stroke-width:8.33px;stroke-linejoin:miter;"/><path d="M6021.4,3405.33l0,-160.683c0,-51.942 -21.083,-77.246 -38.5,-123.967c-10.875,-29.058 -33.5,-47.504 -58.333,-47.504l-305.75,0c-24.792,0 -47.458,18.446 -58.292,47.504c-17.416,46.721 -38.542,72.025 -38.542,123.967l0,133.267" style="fill:none;stroke:#16161e;stroke-width:8.33px;stroke-linejoin:miter;"/><path d="M7614.69,2388.81l-3968.88,-0" style="fill:none;stroke:#16161e;stroke-width:8.33px;stroke-linejoin:miter;"/><path d="M3917.86,3073.17l247.874,0c113.959,-287.633 394.584,-491.062 722.751,-491.062c328.208,-0 608.833,203.429 722.749,491.062l310.084,0c113.958,-287.633 394.583,-491.062 722.75,-491.062c328.166,-0 608.833,203.429 722.75,491.062l247.875,0l-0,104.863" style="fill:none;stroke:#16161e;stroke-width:8.33px;stroke-linejoin:miter;"/><path d="M7532.98,2991.44l-112.541,-0c-141.709,-300.108 -440.625,-491.062 -776.375,-491.062c-335.75,-0 -634.667,190.954 -776.333,491.062l-202.876,-0c-141.708,-300.108 -440.625,-491.062 -776.374,-491.062c-335.751,-0 -634.667,190.954 -776.334,491.062l-112.546,-0" style="fill:none;stroke:#cecfd8;stroke-width:8.33px;stroke-linejoin:miter;"/><path d="M7414.81,2203.33l392.5,0l-0,43.971l33.666,-0.2l0,142.917" style="fill:none;stroke:#1d1d1b;stroke-width:8.33px;stroke-linejoin:miter;"/><path d="M6957.52,2203.33l370.417,0" style="fill:none;stroke:#1d1d1b;stroke-width:8.33px;stroke-linejoin:miter;"/><path d="M6497.56,2203.33l372,0" style="fill:none;stroke:#1d1d1b;stroke-width:8.33px;stroke-linejoin:miter;"/><path d="M6037.73,2203.33l372.959,0" style="fill:none;stroke:#1d1d1b;stroke-width:8.33px;stroke-linejoin:miter;"/><path d="M5580.02,2203.33l372.542,0" style="fill:none;stroke:#1d1d1b;stroke-width:8.33px;stroke-linejoin:miter;"/><path d="M5120.69,2203.33l372.958,0" style="fill:none;stroke:#1d1d1b;stroke-width:8.33px;stroke-linejoin:miter;"/><path d="M4663.52,2203.33l370.042,0" style="fill:none;stroke:#1d1d1b;stroke-width:8.33px;stroke-linejoin:miter;"/><path d="M4204.06,2203.33l369.375,0" style="fill:none;stroke:#1d1d1b;stroke-width:8.33px;stroke-linejoin:miter;"/><path d="M4268.31,3373.45l-0,-128.808c-0,-51.942 -21.125,-77.246 -38.542,-123.967c-10.833,-29.058 -33.458,-47.504 -58.292,-47.504l-253.624,0l-0,77.692" style="fill:none;stroke:#16161e;stroke-width:8.33px;stroke-linejoin:miter;"/><path d="M7614.69,3073.17l-267.459,0c-24.791,0 -47.458,18.446 -58.291,47.504c-17.417,46.721 -38.542,72.025 -38.542,123.967l0,160.683" style="fill:none;stroke:#16161e;stroke-width:8.33px;stroke-linejoin:miter;"/><path d="M4160.1,2175.18l0,-65.47" style="fill:none;stroke:#16161e;stroke-width:8.33px;stroke-linejoin:miter;"/><path d="M4124.4,2076.58l35.708,35.725l35.709,-35.725l-35.709,-35.725l-35.708,35.725Z" style="fill:none;stroke:#16161e;stroke-width:8.33px;stroke-linejoin:miter;"/><path d="M4119.73,2174.9l-0,80.75l18.541,0l0,133.163l43.708,-0l0,-133.163l18.501,0l-0,-80.75l-80.75,0Z" style="fill:none;stroke:#1d1d1b;stroke-width:8.33px;stroke-linejoin:miter;"/><path d="M4619.02,2175.18l0,-65.47" style="fill:none;stroke:#16161e;stroke-width:8.33px;stroke-linejoin:miter;"/><path d="M4583.31,2076.58l35.708,35.725l35.709,-35.725l-35.709,-35.725l-35.708,35.725Z" style="fill:none;stroke:#16161e;stroke-width:8.33px;stroke-linejoin:miter;"/><path d="M4578.65,2174.9l0,80.75l18.5,0l0,133.163l43.708,-0l0,-133.163l18.542,0l0,-80.75l-80.75,0Z" style="fill:none;stroke:#1d1d1b;stroke-width:8.33px;stroke-linejoin:miter;"/><path d="M5077.94,2175.18l-0,-65.47" style="fill:none;stroke:#16161e;stroke-width:8.33px;stroke-linejoin:miter;"/><path d="M5042.19,2076.58l35.75,35.725l35.708,-35.725l-35.708,-35.725l-35.75,35.725Z" style="fill:none;stroke:#16161e;stroke-width:8.33px;stroke-linejoin:miter;"/><path d="M5037.56,2174.9l0,80.75l18.5,0l-0,133.163l43.708,-0l0,-133.163l18.542,0l-0,-80.75l-80.75,0Z" style="fill:none;stroke:#1d1d1b;stroke-width:8.33px;stroke-linejoin:miter;"/><path d="M5536.81,2175.18l-0,-65.47" style="fill:none;stroke:#16161e;stroke-width:8.33px;stroke-linejoin:miter;"/><path d="M5501.11,2076.58l35.708,35.725l35.75,-35.725l-35.75,-35.725l-35.708,35.725Z" style="fill:none;stroke:#16161e;stroke-width:8.33px;stroke-linejoin:miter;"/><path d="M5496.44,2174.9l-0,80.75l18.542,0l-0,133.163l43.708,-0l-0,-133.163l18.5,0l-0,-80.75l-80.75,0Z" style="fill:none;stroke:#1d1d1b;stroke-width:8.33px;stroke-linejoin:miter;"/><path d="M5995.73,2175.18l-0,-65.47" style="fill:none;stroke:#16161e;stroke-width:8.33px;stroke-linejoin:miter;"/><path d="M5960.02,2076.58l35.709,35.725l35.749,-35.725l-35.749,-35.725l-35.709,35.725Z" style="fill:none;stroke:#16161e;stroke-width:8.33px;stroke-linejoin:miter;"/><path d="M5955.35,2174.9l0,80.75l18.542,0l0,133.163l43.709,-0l-0,-133.163l18.499,0l0,-80.75l-80.75,0Z" style="fill:none;stroke:#1d1d1b;stroke-width:8.33px;stroke-linejoin:miter;"/><path d="M6454.65,2175.18l0,-65.47" style="fill:none;stroke:#16161e;stroke-width:8.33px;stroke-linejoin:miter;"/><path d="M6418.94,2076.58l35.708,35.725l35.708,-35.725l-35.708,-35.725l-35.708,35.725Z" style="fill:none;stroke:#16161e;stroke-width:8.33px;stroke-linejoin:miter;"/><path d="M6414.27,2174.9l0,80.75l18.542,0l-0,133.163l43.667,-0l-0,-133.163l18.541,0l0,-80.75l-80.75,0Z" style="fill:none;stroke:#1d1d1b;stroke-width:8.33px;stroke-linejoin:miter;"/><path d="M6913.56,2175.18l-0,-65.47" style="fill:none;stroke:#16161e;stroke-width:8.33px;stroke-linejoin:miter;"/><path d="M6877.81,2076.58l35.75,35.725l35.708,-35.725l-35.708,-35.725l-35.75,35.725Z" style="fill:none;stroke:#16161e;stroke-width:8.33px;stroke-linejoin:miter;"/><path d="M6873.19,2174.9l-0,80.75l18.5,0l-0,133.163l43.708,-0l0,-133.163l18.542,0l-0,-80.75l-80.75,0Z" style="fill:none;stroke:#1d1d1b;stroke-width:8.33px;stroke-linejoin:miter;"/><path d="M7372.48,2175.18l0,-65.47" style="fill:none;stroke:#16161e;stroke-width:8.33px;stroke-linejoin:miter;"/><path d="M7336.73,2076.58l35.75,35.725l35.709,-35.725l-35.709,-35.725l-35.75,35.725Z" style="fill:none;stroke:#16161e;stroke-width:8.33px;stroke-linejoin:miter;"/><path d="M7332.1,2174.9l0,80.75l18.5,0l0,133.163l43.709,-0l0,-133.163l18.5,0l-0,-80.75l-80.709,0Z" style="fill:none;stroke:#1d1d1b;stroke-width:8.33px;stroke-linejoin:miter;"/><path d="M4531.19,2285.93l-0,-38.629l-277.917,0l-0,38.629l-25.75,0l0,26.667c0,19.575 15.875,35.442 35.459,35.442l258.499,-0c19.584,-0 35.459,-15.867 35.459,-35.442l-0,-26.667l-25.75,0Z" style="fill:none;stroke:#d1d2dc;stroke-width:8.33px;stroke-linejoin:miter;"/><path d="M4986.1,2285.93l0,-38.629l-277.916,0l-0,38.629l-25.75,0l-0,26.667c-0,19.575 15.875,35.442 35.458,35.442l258.5,-0c19.583,-0 35.417,-15.867 35.417,-35.442l-0,-26.667l-25.709,0Z" style="fill:none;stroke:#d1d2dc;stroke-width:8.33px;stroke-linejoin:miter;"/><path d="M5449.19,2285.93l-0,-38.629l-277.917,0l0,38.629l-25.75,0l0,26.667c0,19.575 15.875,35.442 35.458,35.442l258.501,-0c19.583,-0 35.416,-15.867 35.416,-35.442l0,-26.667l-25.708,0Z" style="fill:none;stroke:#d1d2dc;stroke-width:8.33px;stroke-linejoin:miter;"/><path d="M5904.06,2285.93l-0,-38.629l-277.875,0l-0,38.629l-25.75,0l-0,26.667c-0,19.575 15.875,35.442 35.458,35.442l258.5,-0c19.542,-0 35.417,-15.867 35.417,-35.442l-0,-26.667l-25.75,0Z" style="fill:none;stroke:#d1d2dc;stroke-width:8.33px;stroke-linejoin:miter;"/><path d="M6358.98,2285.93l0,-38.629l-277.874,0l-0,38.629l-25.751,0l0,26.667c0,19.575 15.876,35.442 35.417,35.442l258.5,-0c19.583,-0 35.458,-15.867 35.458,-35.442l0,-26.667l-25.75,0Z" style="fill:none;stroke:#d1d2dc;stroke-width:8.33px;stroke-linejoin:miter;"/><path d="M6822.06,2285.93l-0,-38.629l-277.875,0l-0,38.629l-25.75,0l-0,26.667c-0,19.575 15.875,35.442 35.416,35.442l258.501,-0c19.583,-0 35.458,-15.867 35.458,-35.442l-0,-26.667l-25.75,0Z" style="fill:none;stroke:#d1d2dc;stroke-width:8.33px;stroke-linejoin:miter;"/><path d="M7285.15,2285.93l0,-38.629l-277.875,0l0,38.629l-25.75,0l0,26.667c0,19.575 15.875,35.442 35.417,35.442l258.5,-0c19.583,-0 35.458,-15.867 35.458,-35.442l0,-26.667l-25.75,0Z" style="fill:none;stroke:#d1d2dc;stroke-width:8.33px;stroke-linejoin:miter;"/><path d="M7774.81,2285.72l-0,-38.629l-160.125,0c-0,0.204 -160.083,0.204 -160.083,0.204l-0,38.625l-25.751,0l0,26.663c0,19.579 15.876,35.446 35.417,35.446l150.417,-0c-0,-0.2 150.417,-0.2 150.417,-0.2c19.583,-0 35.458,-15.871 35.458,-35.446l0,-26.663l-25.75,0Z" style="fill:none;stroke:#d1d2dc;stroke-width:8.33px;stroke-linejoin:miter;"/><path d="M4119.73,2204.32l-392.488,0l-0,43.975l-33.646,-0.204l0,142.917" style="fill:none;stroke:#1d1d1b;stroke-width:8.33px;stroke-linejoin:miter;"/><path d="M3759.75,2286.72l0,-38.629l160.108,-0c0,0.204 160.125,0.204 160.125,0.204l0,38.625l25.751,0l-0,26.667c-0,19.575 -15.876,35.441 -35.459,35.441l-150.417,0c0,-0.2 -150.404,-0.2 -150.404,-0.2c-19.579,0 -35.446,-15.87 -35.446,-35.445l0,-26.663l25.742,0Z" style="fill:none;stroke:#d1d2dc;stroke-width:8.33px;stroke-linejoin:miter;"/><path d="M10563.6,3117.45l-0,90.321" style="fill:none;stroke:#16161e;stroke-width:8.33px;stroke-linejoin:miter;"/><path d="M11001.7,3117.45l0,90.321" style="fill:none;stroke:#16161e;stroke-width:8.33px;stroke-linejoin:miter;"/><path d="M10561.1,3074.12l0,-110.725c0,-18.879 15.292,-34.188 34.167,-34.188l369.75,0c18.875,0 34.167,15.309 34.167,34.188l0,113.258" style="fill:none;stroke:#16161e;stroke-width:8.33px;stroke-linejoin:miter;"/><rect x="10497.8" y="3070.18" width="563.875" height="45.583" style="fill:none;stroke:#16161e;stroke-width:8.33px;stroke-linejoin:miter;"/><path d="M10931.6,2546.34c-0,123.325 99.959,223.3 223.292,223.3c123.334,-0 223.292,-99.975 223.292,-223.3c0,-96.55 -136.875,-311.946 -196.292,-400.934c-12.833,-19.249 -41.166,-19.249 -54,0c-59.458,88.988 -196.292,304.384 -196.292,400.934Z" style="fill:#ff6900;fill-rule:nonzero;"/><path d="M11154.9,2541.75l0,666.021" style="fill:none;stroke:#16161e;stroke-width:8.33px;stroke-linejoin:miter;"/><path d="M11153,2651.93l-55.084,-55.092" style="fill:none;stroke:#16161e;stroke-width:8.33px;stroke-linejoin:miter;"/><path d="M10924.4,2442.58c-31.791,-56.338 -66.207,-109.6 -88.166,-142.442c-10.834,-16.229 -34.709,-16.229 -45.541,-0c-50.084,75.012 -165.458,256.592 -165.458,337.979c-0,103.963 84.291,188.238 188.249,188.238c64.375,-0 121.167,-32.305 155.125,-81.588" style="fill:none;stroke:#16161e;stroke-width:8.33px;stroke-linejoin:miter;"/><path d="M10813.5,2634.26l0,263.087" style="fill:none;stroke:#16161e;stroke-width:8.33px;stroke-linejoin:miter;"/><path d="M3076.76,1803.46c-0,125.817 101.991,227.808 227.808,227.808c125.813,0 227.804,-101.991 227.804,-227.808c0,-98.496 -139.62,-318.242 -200.25,-409.021c-13.116,-19.642 -41.991,-19.642 -55.112,-0c-60.629,90.779 -200.25,310.525 -200.25,409.021Z" style="fill:#ff6900;fill-rule:nonzero;"/><path d="M3304.57,1798.78l0,511.587" style="fill:none;stroke:#16161e;stroke-width:8.33px;stroke-linejoin:miter;"/><path d="M3302.61,1911.19l-56.2,-56.2" style="fill:none;stroke:#16161e;stroke-width:8.33px;stroke-linejoin:miter;"/><path d="M3064.94,1687.7c-32.438,-57.476 -67.575,-111.813 -89.95,-145.317c-11.059,-16.554 -35.4,-16.554 -46.454,-0c-51.113,76.529 -168.809,261.767 -168.809,344.8c0,106.058 85.975,192.037 192.034,192.037c65.666,0 123.637,-32.958 158.266,-83.237" style="fill:none;stroke:#16161e;stroke-width:8.33px;stroke-linejoin:miter;"/><path d="M2951.76,1883.24l-0,503.954" style="fill:none;stroke:#16161e;stroke-width:8.33px;stroke-linejoin:miter;"/><path d="M2693.93,1882.98l-485.942,1.366" style="fill:none;stroke:#16161e;stroke-width:8.33px;stroke-linejoin:miter;"/><path d="M2101.15,440.863l-36.55,-0l0,-68.3l1174.01,-0l0,68.3l-42.195,-0" style="fill:none;stroke:#16161e;stroke-width:8.33px;stroke-linejoin:miter;"/><path d="M3571.16,1970.31l-0,-1529.44l-301.634,-0" style="fill:none;stroke:#16161e;stroke-width:8.33px;stroke-linejoin:miter;"/><path d="M3269.53,372.563l343.829,-0l0,68.3l-42.195,-0" style="fill:none;stroke:#16161e;stroke-width:8.33px;stroke-linejoin:miter;"/><path d="M2215.05,372.563l-0,-99.4l85.329,-82.263l83.587,80.584l0,101.079" style="fill:none;stroke:#16161e;stroke-width:8.33px;stroke-linejoin:miter;"/><path d="M2444.75,190.9l83.592,80.584l-0,101.079" style="fill:none;stroke:#16161e;stroke-width:8.33px;stroke-linejoin:miter;"/><path d="M2299.51,190.9l144.366,0" style="fill:none;stroke:#16161e;stroke-width:8.33px;stroke-linejoin:miter;"/><rect x="2288.31" y="579.788" width="82.221" height="82.221" style="fill:none;stroke:#d1d2dc;stroke-width:8.33px;stroke-linejoin:miter;"/><rect x="2497.84" y="579.788" width="82.221" height="82.221" style="fill:none;stroke:#d1d2dc;stroke-width:8.33px;stroke-linejoin:miter;"/><rect x="2707.38" y="579.788" width="82.221" height="82.221" style="fill:none;stroke:#d1d2dc;stroke-width:8.33px;stroke-linejoin:miter;"/><rect x="2916.91" y="579.788" width="82.221" height="82.221" style="fill:none;stroke:#d1d2dc;stroke-width:8.33px;stroke-linejoin:miter;"/><rect x="2282.64" y="786.309" width="82.225" height="82.221" style="fill:none;stroke:#d1d2dc;stroke-width:8.33px;stroke-linejoin:miter;"/><rect x="2701.71" y="786.309" width="82.221" height="82.221" style="fill:none;stroke:#d1d2dc;stroke-width:8.33px;stroke-linejoin:miter;"/><rect x="2911.24" y="786.309" width="82.221" height="82.221" style="fill:none;stroke:#d1d2dc;stroke-width:8.33px;stroke-linejoin:miter;"/><rect x="2271.31" y="1199.35" width="82.221" height="82.225" style="fill:none;stroke:#d1d2dc;stroke-width:8.33px;stroke-linejoin:miter;"/><rect x="2690.38" y="1199.35" width="82.225" height="82.225" style="fill:none;stroke:#d1d2dc;stroke-width:8.33px;stroke-linejoin:miter;"/><rect x="2899.91" y="1199.35" width="82.225" height="82.225" style="fill:none;stroke:#d1d2dc;stroke-width:8.33px;stroke-linejoin:miter;"/><rect x="2265.65" y="1405.88" width="82.221" height="82.221" style="fill:none;stroke:#d1d2dc;stroke-width:8.33px;stroke-linejoin:miter;"/><rect x="2475.18" y="1405.88" width="82.221" height="82.221" style="fill:none;stroke:#d1d2dc;stroke-width:8.33px;stroke-linejoin:miter;"/><rect x="2684.71" y="1405.88" width="82.221" height="82.221" style="fill:none;stroke:#d1d2dc;stroke-width:8.33px;stroke-linejoin:miter;"/><path d="M3352.87,688.959l88.571,-0" style="fill:none;stroke:#d1d2dc;stroke-width:8.33px;stroke-linejoin:miter;"/><path d="M3352.87,794.671l88.571,0" style="fill:none;stroke:#d1d2dc;stroke-width:8.33px;stroke-linejoin:miter;"/><path d="M3352.87,900.384l88.571,-0" style="fill:none;stroke:#d1d2dc;stroke-width:8.33px;stroke-linejoin:miter;"/><path d="M3352.87,1006.09l88.571,0" style="fill:none;stroke:#d1d2dc;stroke-width:8.33px;stroke-linejoin:miter;"/><path d="M3352.87,1111.8l88.571,0" style="fill:none;stroke:#d1d2dc;stroke-width:8.33px;stroke-linejoin:miter;"/><path d="M3352.87,1217.51l88.571,-0" style="fill:none;stroke:#d1d2dc;stroke-width:8.33px;stroke-linejoin:miter;"/><path d="M3352.87,1323.23l88.571,0" style="fill:none;stroke:#d1d2dc;stroke-width:8.33px;stroke-linejoin:miter;"/><path d="M2325.07,306.371c0,13.609 -11.442,24.642 -25.558,24.642c-14.117,-0 -25.559,-11.033 -25.559,-24.642c0,-13.608 11.442,-24.637 25.559,-24.637c14.116,-0 25.558,11.029 25.558,24.637Z" style="fill:none;stroke:#16161e;stroke-width:8.33px;stroke-linejoin:miter;"/><path d="M2842.49,372.563l-0,-99.4l85.329,-82.263l83.587,80.584l0,101.079" style="fill:none;stroke:#16161e;stroke-width:8.33px;stroke-linejoin:miter;"/><path d="M3072.18,190.9l83.587,80.584l0,101.079" style="fill:none;stroke:#16161e;stroke-width:8.33px;stroke-linejoin:miter;"/><path d="M2926.95,190.9l144.367,0" style="fill:none;stroke:#16161e;stroke-width:8.33px;stroke-linejoin:miter;"/><path d="M2952.5,306.371c0,13.609 -11.441,24.642 -25.558,24.642c-14.116,-0 -25.558,-11.033 -25.558,-24.642c-0,-13.608 11.442,-24.637 25.558,-24.637c14.117,-0 25.558,11.029 25.558,24.637Z" style="fill:none;stroke:#16161e;stroke-width:8.33px;stroke-linejoin:miter;"/><path d="M3335.62,372.563l0,-181.663l61.537,0l0,181.663" style="fill:none;stroke:#16161e;stroke-width:8.33px;stroke-linejoin:miter;"/><path d="M3397.15,190.9l44.288,0l0,172.917" style="fill:none;stroke:#16161e;stroke-width:8.33px;stroke-linejoin:miter;"/><path d="M2528.34,306.371l291.483,0" style="fill:none;stroke:#16161e;stroke-width:8.33px;stroke-linejoin:miter;"/><path d="M3165.38,306.371l170.237,0" style="fill:none;stroke:#16161e;stroke-width:8.33px;stroke-linejoin:miter;"/><path d="M3196.41,1486.97l-0,-799.737l-19.805,-0l0,-105.713l19.805,-0l-0,-140.654l-1095.26,-0l0,608.462" style="fill:none;stroke:#16161e;stroke-width:8.33px;stroke-linejoin:miter;"/><path d="M2613.29,1617.23c-25.55,18.905 -28.512,56.53 -28.512,56.53c-0,-0 38.466,6.975 64.012,-11.93c25.55,-18.904 28.513,-56.529 28.513,-56.529c-0,0 -38.467,-6.975 -64.013,11.929Z" style="fill:#ff6900;fill-rule:nonzero;"/><path d="M2292.39,1658.02c21.183,23.387 60.316,23.862 60.316,23.862c0,0 4.792,-37.45 -16.387,-60.837c-21.183,-23.388 -60.317,-23.862 -60.317,-23.862c0,-0 -4.796,37.45 16.388,60.837Z" style="fill:#ff6900;fill-rule:nonzero;"/><path d="M2458.76,1675.02c-0,19.492 16.396,35.296 36.616,35.296c20.221,-0 36.617,-15.804 36.617,-35.296c0,-19.5 -16.396,-35.304 -36.617,-35.304c-20.22,-0 -36.616,15.804 -36.616,35.304Z" style="fill:#ff6900;fill-rule:nonzero;"/><path d="M2390.98,1622.42c0,14.071 11.834,25.479 26.43,25.479c14.596,0 26.429,-11.408 26.429,-25.479c-0,-14.075 -11.833,-25.483 -26.429,-25.483c-14.596,-0 -26.43,11.408 -26.43,25.483Z" style="fill:#ff6900;fill-rule:nonzero;"/><rect x="2275.53" y="1714.67" width="401.771" height="50.763" style="fill:none;stroke:#16161e;stroke-width:8.33px;stroke-linejoin:miter;"/><path d="M2256.23,1039.45l301.166,0" style="fill:none;stroke:#d1d2dc;stroke-width:8.33px;stroke-linejoin:miter;"/><path d="M2731.49,1039.45l301.171,0" style="fill:none;stroke:#d1d2dc;stroke-width:8.33px;stroke-linejoin:miter;"/><path d="M2617.65,1006.09l0,72.487" style="fill:none;stroke:#d1d2dc;stroke-width:8.33px;stroke-linejoin:miter;"/><path d="M2663.84,1006.09l-0,72.487" style="fill:none;stroke:#d1d2dc;stroke-width:8.33px;stroke-linejoin:miter;"/><path d="M10302.5,1196.69l44.334,17.908l44.333,-17.908l44.333,17.908l44.333,-17.908l44.376,17.908l44.375,-17.908l44.374,17.908l44.376,-17.908" style="fill:none;stroke:#d1d2dc;stroke-width:8.33px;stroke-linejoin:miter;"/><path d="M10176.9,1214.6l44.333,-17.908l44.376,17.908l44.374,-17.908" style="fill:none;stroke:#d1d2dc;stroke-width:8.33px;stroke-linejoin:miter;"/><path d="M10346.9,1173.86l44.333,-17.909l44.333,17.909l44.333,-17.909l44.376,17.909l44.375,-17.909l44.374,17.909" style="fill:none;stroke:#d1d2dc;stroke-width:8.33px;stroke-linejoin:miter;"/><path d="M9644.19,3001.3l103.042,-0" style="fill:none;stroke:#d1d2dc;stroke-width:8.33px;stroke-linejoin:miter;"/><path d="M9686.6,2999.37l-0,-30.925" style="fill:none;stroke:#d1d2dc;stroke-width:8.33px;stroke-linejoin:miter;"/><path d="M10629.7,1434.22l-80.208,0" style="fill:none;stroke:#d1d2dc;stroke-width:8.33px;stroke-linejoin:miter;"/><path d="M10589.8,1455.48l0,-21.262" style="fill:none;stroke:#d1d2dc;stroke-width:8.33px;stroke-linejoin:miter;"/><path d="M9978.48,3193l-0,-46.233l-69.999,-0l-0,-1818.34" style="fill:none;stroke:#16161e;stroke-width:8.33px;stroke-linejoin:miter;"/><rect x="9779.65" y="1453.3" width="90.459" height="30.234" style="fill:#cecfd8;fill-rule:nonzero;"/><rect x="9724.19" y="1407.53" width="90.458" height="30.229" style="fill:#cecfd8;fill-rule:nonzero;"/><rect x="9084.81" y="1275.99" width="881.417" height="49.075" style="fill:none;stroke:#16161e;stroke-width:8.33px;stroke-linejoin:miter;"/><path d="M9963.48,1275.99l782.667,-0l-0,49.075l-791.001,-0" style="fill:none;stroke:#16161e;stroke-width:8.33px;stroke-linejoin:miter;"/><path d="M9135.31,1275.99l64.208,-222.179l1421.58,-0l64.208,222.179" style="fill:none;stroke:#16161e;stroke-width:8.33px;stroke-linejoin:miter;"/><path d="M9846.1,1053.81l64.208,222.179" style="fill:none;stroke:#16161e;stroke-width:8.33px;stroke-linejoin:miter;"/><path d="M9206.81,1205.65l70.375,-64.171l69.667,63.488l50.874,-0l-69.624,-63.488l-50.917,0" style="fill:none;stroke:#16161e;stroke-width:8.33px;"/><path d="M9223.52,1190.43l-0,85.554" style="fill:none;stroke:#16161e;stroke-width:8.33px;stroke-linejoin:miter;"/><path d="M9331.19,1190.43l-0,85.554" style="fill:none;stroke:#16161e;stroke-width:8.33px;stroke-linejoin:miter;"/><path d="M9375.9,1205.65l0,70.342" style="fill:none;stroke:#16161e;stroke-width:8.33px;"/><rect x="9259.81" y="1214.33" width="30.167" height="26.492" style="fill:#ff6900;fill-rule:nonzero;"/><path d="M9428.23,1205.65l70.374,-64.171l69.667,63.488l50.875,-0l-69.667,-63.488l-50.875,0" style="fill:none;stroke:#16161e;stroke-width:8.33px;"/><path d="M9444.9,1190.43l0,85.554" style="fill:none;stroke:#16161e;stroke-width:8.33px;stroke-linejoin:miter;"/><path d="M9552.6,1190.43l0,85.554" style="fill:none;stroke:#16161e;stroke-width:8.33px;stroke-linejoin:miter;"/><path d="M9597.31,1205.65l0,70.342" style="fill:none;stroke:#16161e;stroke-width:8.33px;"/><rect x="9481.23" y="1214.33" width="30.125" height="26.492" style="fill:#ff6900;fill-rule:nonzero;"/><path d="M9649.6,1205.65l70.418,-64.171l69.624,63.488l50.875,-0l-69.625,-63.488l-50.874,0" style="fill:none;stroke:#16161e;stroke-width:8.33px;"/><path d="M9666.31,1190.43l-0,85.554" style="fill:none;stroke:#16161e;stroke-width:8.33px;stroke-linejoin:miter;"/><path d="M9774.02,1190.43l0,85.554" style="fill:none;stroke:#16161e;stroke-width:8.33px;stroke-linejoin:miter;"/><path d="M9818.69,1205.65l-0,70.342" style="fill:none;stroke:#16161e;stroke-width:8.33px;"/><rect x="9702.65" y="1214.33" width="30.125" height="26.492" style="fill:#ff6900;fill-rule:nonzero;"/><path d="M9425.4,1053.81l-0,-83.588l76.625,0l0,83.588" style="fill:none;stroke:#16161e;stroke-width:8.33px;"/><path d="M9502.02,970.221l42.917,0l0,83.588" style="fill:none;stroke:#16161e;stroke-width:8.33px;"/><path d="M9966.23,1053.81l0,-41.792l243.959,-0l-0,41.792" style="fill:none;stroke:#16161e;stroke-width:8.33px;"/><path d="M10210.2,1012.02l93.541,-0l0,41.792" style="fill:none;stroke:#16161e;stroke-width:8.33px;"/><rect x="9221.56" y="2566.11" width="124.375" height="252.075" style="fill:none;stroke:#16161e;stroke-width:8.33px;"/><rect x="9449.48" y="2566.11" width="124.375" height="252.075" style="fill:none;stroke:#16161e;stroke-width:8.33px;"/><rect x="9677.4" y="2566.11" width="124.416" height="252.075" style="fill:none;stroke:#16161e;stroke-width:8.33px;"/><rect x="9221.56" y="2232.74" width="124.375" height="252.075" style="fill:none;stroke:#d1d2dc;stroke-width:8.33px;stroke-linejoin:miter;"/><rect x="9449.48" y="2232.74" width="124.375" height="252.075" style="fill:none;stroke:#d1d2dc;stroke-width:8.33px;stroke-linejoin:miter;"/><rect x="9677.4" y="2232.74" width="124.416" height="252.075" style="fill:none;stroke:#d1d2dc;stroke-width:8.33px;stroke-linejoin:miter;"/><rect x="9221.56" y="1899.37" width="124.375" height="252.075" style="fill:none;stroke:#d1d2dc;stroke-width:8.33px;stroke-linejoin:miter;"/><rect x="9449.48" y="1899.37" width="124.375" height="252.075" style="fill:none;stroke:#d1d2dc;stroke-width:8.33px;stroke-linejoin:miter;"/><rect x="9677.4" y="1899.37" width="124.416" height="252.075" style="fill:none;stroke:#d1d2dc;stroke-width:8.33px;stroke-linejoin:miter;"/><rect x="9221.56" y="1566" width="124.375" height="252.071" style="fill:#cecfd8;fill-rule:nonzero;"/><rect x="9449.48" y="1566" width="124.375" height="252.071" style="fill:#cecfd8;fill-rule:nonzero;"/><rect x="9677.4" y="1566" width="124.416" height="252.071" style="fill:#cecfd8;fill-rule:nonzero;"/><path d="M9283.73,2566.11l0,252.075" style="fill:none;stroke:#16161e;stroke-width:8.33px;"/><path d="M9221.56,2643.51l124.375,-0" style="fill:none;stroke:#16161e;stroke-width:8.33px;"/><path d="M9221.56,2738.11l124.375,-0" style="fill:none;stroke:#16161e;stroke-width:8.33px;"/><path d="M10246,3138.36l0,-241.021l122.166,-0l0,241.021" style="fill:none;stroke:#d1d2dc;stroke-width:8.33px;stroke-linejoin:miter;"/><path d="M10153.4,3138.36l307.499,-0" style="fill:none;stroke:#d1d2dc;stroke-width:8.33px;stroke-linejoin:miter;"/><path d="M10005.7,2301.15l583.918,0" style="fill:none;stroke:#d1d2dc;stroke-width:8.33px;stroke-linejoin:miter;"/><path d="M10005.7,2063.05l583.918,0" style="fill:none;stroke:#d1d2dc;stroke-width:8.33px;stroke-linejoin:miter;"/><path d="M10005.7,1824.95l583.918,0" style="fill:none;stroke:#d1d2dc;stroke-width:8.33px;stroke-linejoin:miter;"/><path d="M10005.7,1586.85l583.918,0" style="fill:none;stroke:#d1d2dc;stroke-width:8.33px;stroke-linejoin:miter;"/><path d="M10405.1,1780.7l-0,609.309" style="fill:none;stroke:#d1d2dc;stroke-width:8.33px;stroke-linejoin:miter;"/><path d="M10405.1,1510.12l-0,191.959" style="fill:none;stroke:#d1d2dc;stroke-width:8.33px;stroke-linejoin:miter;"/><path d="M10153.4,2072.91l-0,317.104" style="fill:none;stroke:#d1d2dc;stroke-width:8.33px;stroke-linejoin:miter;"/><path d="M10153.4,1510.12l-0,696.955" style="fill:none;stroke:#d1d2dc;stroke-width:8.33px;stroke-linejoin:miter;"/><path d="M10684.9,2400.32l-0,-230.862l-20.792,-0l0,-91.446l20.792,-0l-0,-749.588" style="fill:none;stroke:#16161e;stroke-width:8.33px;stroke-linejoin:miter;"/><path d="M9135.31,3124.55l-0,-958.454l20.792,0l-0,-91.446l-20.792,0l-0,-749.587" style="fill:none;stroke:#16161e;stroke-width:8.33px;stroke-linejoin:miter;"/><path d="M9315.48,3140.12l-251.084,0l0,65.25" style="fill:none;stroke:#16161e;stroke-width:8.33px;stroke-linejoin:miter;"/><path d="M10186.9,2662.35l7.917,22.226" style="fill:none;stroke:#16161e;stroke-width:8.33px;stroke-linejoin:miter;"/><path d="M10217.1,2670.58l15.834,-8.225" style="fill:none;stroke:#16161e;stroke-width:8.33px;stroke-linejoin:miter;"/><path d="M10310.7,2692.52l17.458,0" style="fill:none;stroke:#16161e;stroke-width:8.33px;stroke-linejoin:miter;"/><path d="M10380.5,2673.47l-7.918,11.113" style="fill:none;stroke:#16161e;stroke-width:8.33px;stroke-linejoin:miter;"/><path d="M10442.4,2703.62l15.875,12.7" style="fill:none;stroke:#16161e;stroke-width:8.33px;stroke-linejoin:miter;"/><path d="M10472.6,2684.58l11.083,-14.001" style="fill:none;stroke:#16161e;stroke-width:8.33px;stroke-linejoin:miter;"/><path d="M10217.1,2703.62l7.918,55.554" style="fill:none;stroke:#16161e;stroke-width:8.33px;stroke-linejoin:miter;"/><path d="M10350.4,2703.62l-7.958,61.905" style="fill:none;stroke:#16161e;stroke-width:8.33px;stroke-linejoin:miter;"/><path d="M10206,2757.24c9.625,13.046 2.292,34.829 2.292,34.829c-0,0 -23,0.638 -32.625,-12.408c-9.667,-13.046 -2.292,-34.834 -2.292,-34.834c-0,0 23,-0.633 32.625,12.413Z" style="fill:#ff6900;fill-rule:nonzero;"/><path d="M10293.3,2732.04c-4.458,15.596 -26.209,23.067 -26.209,23.067c0,-0 -14.541,-17.817 -10.083,-33.413c4.459,-15.596 26.209,-23.067 26.209,-23.067c-0,0 14.541,17.817 10.083,33.413Z" style="fill:#ff6900;fill-rule:nonzero;"/><path d="M10500.8,2781.39c-10.375,9.462 -29.791,5.058 -29.791,5.058c-0,0 -2.584,-19.75 7.791,-29.212c10.375,-9.463 29.792,-5.059 29.792,-5.059c0,0 2.583,19.75 -7.792,29.213Z" style="fill:#ff6900;fill-rule:nonzero;"/><path d="M10437.4,2756.04c-6.042,21.217 -35.625,31.379 -35.625,31.379c-0,0 -19.792,-24.233 -13.75,-45.45c6.041,-21.217 35.625,-31.379 35.625,-31.379c-0,0 19.791,24.233 13.75,45.45Z" style="fill:#ff6900;fill-rule:nonzero;"/><path d="M10539.9,2772.63c0,-114.058 -92.458,-206.52 -206.541,-206.52c-114.042,-0 -206.5,92.462 -206.5,206.52" style="fill:none;stroke:#16161e;stroke-width:8.33px;"/><path d="M10126.9,2804.67l413.041,-0" style="fill:none;stroke:#16161e;stroke-width:8.33px;"/><path d="M555.725,3149.58l0,-243.125" style="fill:none;stroke:#16161e;stroke-width:8.33px;stroke-linejoin:miter;"/><path d="M639.638,2319.55l-0,-1100.05l1283.86,0l0,1100.05" style="fill:none;stroke:#16161e;stroke-width:8.33px;stroke-linejoin:miter;"/><path d="M1614.15,2576.45l-1020.89,0" style="fill:none;stroke:#16161e;stroke-width:8.33px;"/><path d="M526.892,2438.14l8.496,-26.837l1269.28,-0" style="fill:none;stroke:#16161e;stroke-width:8.33px;"/><path d="M597.654,2640.38c25.521,-5.104 47.05,-21.217 59.509,-43.155c15.204,26.776 43.921,44.871 76.912,44.871c32.992,0 61.705,-18.095 76.913,-44.871c15.208,26.776 43.925,44.871 76.912,44.871c32.996,0 61.713,-18.095 76.917,-44.871c15.204,26.776 43.925,44.871 76.912,44.871c32.992,0 61.709,-18.095 76.917,-44.871c15.204,26.776 43.921,44.871 76.913,44.871c32.991,0 61.708,-18.095 76.916,-44.871c15.2,26.776 43.921,44.871 76.913,44.871c32.987,0 61.708,-18.095 76.912,-44.871c15.205,26.776 43.921,44.871 76.913,44.871" style="fill:none;stroke:#16161e;stroke-width:8.33px;"/><path d="M1711.6,2878.61c-46.204,-85.592 -136.708,-143.746 -240.795,-143.746l-17.713,-0c-151.029,-0 -273.458,122.433 -273.458,273.463" style="fill:none;stroke:#d1d2dc;stroke-width:8.33px;stroke-linejoin:miter;"/><path d="M883.434,3124.99l-0,-267.121l-209.655,0l0,267.121" style="fill:none;stroke:#d1d2dc;stroke-width:8.33px;stroke-linejoin:miter;"/><path d="M826.059,3124.99l-0,-267.121" style="fill:none;stroke:#d1d2dc;stroke-width:8.33px;stroke-linejoin:miter;"/><rect x="673.779" y="2769.51" width="209.654" height="44.938" style="fill:none;stroke:#d1d2dc;stroke-width:8.33px;stroke-linejoin:miter;"/><path d="M514.904,2370.93l0,-51.38l1461.38,0" style="fill:none;stroke:#16161e;stroke-width:8.33px;stroke-linejoin:miter;"/><path d="M1983.34,1219.5l158.292,0l-0,1100.05" style="fill:none;stroke:#16161e;stroke-width:8.33px;stroke-linejoin:miter;"/><path d="M2042.22,2319.55l216.717,0l-0,105.167" style="fill:none;stroke:#16161e;stroke-width:8.33px;stroke-linejoin:miter;"/><path d="M639.638,1219.5l-36.704,0l-0,-56.083l1349.84,0l0,56.083l-29.275,0" style="fill:none;stroke:#16161e;stroke-width:8.33px;stroke-linejoin:miter;"/><path d="M1952.78,1163.42l218.13,0l-0,56.083l-29.275,0" style="fill:none;stroke:#16161e;stroke-width:8.33px;stroke-linejoin:miter;"/><rect x="1005.61" y="2794.7" width="90.95" height="90.95" style="fill:#cecfd8;fill-rule:nonzero;"/><rect x="1681.18" y="1860.1" width="118.821" height="360.512" style="fill:none;stroke:#16161e;stroke-width:8.33px;stroke-linejoin:miter;"/><path d="M1681.18,1970.31l118.82,-0" style="fill:none;stroke:#16161e;stroke-width:8.33px;stroke-linejoin:miter;"/><path d="M1681.18,2027.16l118.82,-0" style="fill:none;stroke:#16161e;stroke-width:8.33px;stroke-linejoin:miter;"/><path d="M723.917,1163.42l582.167,-133.442l583.812,133.442" style="fill:none;stroke:#16161e;stroke-width:8.33px;stroke-linejoin:miter;"/><path d="M2078.97,1163.42l-583.816,-133.442l-189.075,0" style="fill:none;stroke:#16161e;stroke-width:8.33px;stroke-linejoin:miter;"/><path d="M639.638,1262.22l1501.99,0" style="fill:none;stroke:#16161e;stroke-width:8.33px;stroke-linejoin:miter;"/><rect x="787.317" y="1394.05" width="361.263" height="306.804" style="fill:none;stroke:#d1d2dc;stroke-width:8.33px;stroke-linejoin:miter;"/><rect x="1272.79" y="1584.15" width="116.708" height="116.704" style="fill:#cecfd8;fill-rule:nonzero;"/><rect x="1480.38" y="1584.15" width="116.708" height="116.704" style="fill:#cecfd8;fill-rule:nonzero;"/><rect x="1687.96" y="1584.15" width="116.704" height="116.704" style="fill:#ff6900;fill-rule:nonzero;"/><path d="M787.317,1845.66l788.438,-0" style="fill:none;stroke:#d1d2dc;stroke-width:8.33px;stroke-linejoin:miter;"/><path d="M1272.79,1470.7l531.875,0" style="fill:none;stroke:#d1d2dc;stroke-width:8.33px;stroke-linejoin:miter;"/><path d="M1243.19,3042.9l-97.425,0l-0,-34.574l84.383,-0" style="fill:none;stroke:#d1d2dc;stroke-width:8.33px;stroke-linejoin:miter;"/><path d="M545.1,2411.18l0,-40.246" style="fill:none;stroke:#16161e;stroke-width:8.33px;stroke-linejoin:miter;"/><path d="M1410.29,2130.76l-0,-70.392c-0,-38.712 31.383,-70.096 70.096,-70.096c38.712,0 70.091,31.384 70.091,70.096l0,70.392" style="fill:none;stroke:#16161e;stroke-width:8.33px;stroke-linejoin:miter;"/><path d="M1350.49,2225.8l259.783,0" style="fill:none;stroke:#16161e;stroke-width:8.33px;stroke-linejoin:miter;"/><path d="M1115.59,2148.6l-0,-88.229c-0,-38.712 31.379,-70.096 70.092,-70.096c38.712,0 70.091,31.384 70.091,70.096l0,90.904" style="fill:none;stroke:#16161e;stroke-width:8.33px;stroke-linejoin:miter;"/><path d="M1055.79,2225.8l259.783,0" style="fill:none;stroke:#16161e;stroke-width:8.33px;stroke-linejoin:miter;"/><path d="M820.888,2136.01l-0,-75.638c-0,-38.712 31.383,-70.096 70.096,-70.096c38.712,0 70.096,31.384 70.096,70.096l-0,72.092" style="fill:none;stroke:#16161e;stroke-width:8.33px;stroke-linejoin:miter;"/><path d="M761.092,2225.8l259.783,0" style="fill:none;stroke:#16161e;stroke-width:8.33px;stroke-linejoin:miter;"/><path d="M804.554,2141.93c19.867,15.242 22.167,45.584 22.167,45.584c0,-0 -29.904,5.625 -49.767,-9.621c-19.862,-15.242 -22.162,-45.583 -22.162,-45.583c-0,-0 29.9,-5.625 49.762,9.62Z" style="fill:#ff6900;fill-rule:nonzero;"/><path d="M989.163,2179.62c-13.884,15.909 -39.542,16.23 -39.542,16.23c0,-0 -3.141,-25.467 10.746,-41.371c13.883,-15.905 39.542,-16.23 39.542,-16.23c-0,0 3.141,25.467 -10.746,41.371Z" style="fill:#ff6900;fill-rule:nonzero;"/><path d="M892.442,2188.04c-0,11.529 -9.346,20.875 -20.875,20.875c-11.529,-0 -20.875,-9.346 -20.875,-20.875c-0,-11.529 9.346,-20.875 20.875,-20.875c11.529,-0 20.875,9.346 20.875,20.875Z" style="fill:none;stroke:#16161e;stroke-width:8.33px;stroke-linejoin:miter;"/><path d="M931.084,2156.94c-0,8.321 -6.746,15.067 -15.067,15.067c-8.321,-0 -15.067,-6.746 -15.067,-15.067c0,-8.321 6.746,-15.067 15.067,-15.067c8.321,0 15.067,6.746 15.067,15.067Z" style="fill:none;stroke:#16161e;stroke-width:8.33px;stroke-linejoin:miter;"/><path d="M1411.06,2154.64c16.954,13.012 18.92,38.912 18.92,38.912c0,0 -25.529,4.8 -42.483,-8.212c-16.958,-13.013 -18.921,-38.913 -18.921,-38.913c0,0 25.525,-4.804 42.484,8.213Z" style="fill:#ff6900;fill-rule:nonzero;"/><path d="M1594.3,2181.74c-17.741,20.321 -50.516,20.733 -50.516,20.733c-0,0 -4.017,-32.533 13.725,-52.854c17.741,-20.317 50.516,-20.729 50.516,-20.729c0,-0 4.013,32.533 -13.725,52.85Z" style="fill:#ff6900;fill-rule:nonzero;"/><path d="M1488.48,2182.77c-10.896,12.479 -31.029,12.733 -31.029,12.733c-0,0 -2.463,-19.983 8.433,-32.462c10.896,-12.479 31.025,-12.733 31.025,-12.733c-0,-0 2.466,19.983 -8.429,32.462Z" style="fill:#ff6900;fill-rule:nonzero;"/><path d="M1181.14,2172.55c0,12.588 -10.204,22.792 -22.788,22.792c-12.587,-0 -22.791,-10.204 -22.791,-22.792c-0,-12.583 10.204,-22.787 22.791,-22.787c12.584,-0 22.788,10.204 22.788,22.787Z" style="fill:none;stroke:#16161e;stroke-width:8.33px;stroke-linejoin:miter;"/><path d="M1132.58,2169.02c-2.134,-0.354 -4.321,-0.537 -6.559,-0.537c-22.15,-0 -40.108,17.958 -40.108,40.112" style="fill:none;stroke:#16161e;stroke-width:8.33px;stroke-linejoin:miter;"/><path d="M1293.37,2208.6c0,-22.154 -17.958,-40.112 -40.108,-40.112c-12.317,-0 -23.317,5.562 -30.675,14.296c-7.358,-8.734 -18.363,-14.296 -30.679,-14.296c-2.413,-0 -4.771,0.216 -7.067,0.625" style="fill:none;stroke:#16161e;stroke-width:8.33px;stroke-linejoin:miter;"/><path d="M2226.37,2723.89l0,178.317" style="fill:none;stroke:#16161e;stroke-width:8.33px;stroke-linejoin:miter;"/><path d="M5496.44,3299.8c-22.75,-12.525 -42.084,-27.037 -86.792,-27.037c-78.667,-0 -78.667,44.904 -157.333,44.904c-78.667,0 -78.667,-44.904 -157.334,-44.904c-78.666,-0 -78.666,44.904 -157.333,44.904c-78.667,0 -78.667,-44.904 -157.333,-44.904c-78.708,-0 -78.708,44.904 -157.375,44.904c-78.667,0 -78.667,-44.904 -157.375,-44.904c-78.667,-0 -78.667,44.904 -157.333,44.904" style="fill:none;stroke:#cecfd8;stroke-width:8.33px;stroke-linejoin:miter;"/><path d="M7225.73,3291.38c-22.208,12.346 -41.583,26.283 -85.416,26.283c-78.667,0 -78.667,-44.904 -157.334,-44.904c-78.666,-0 -78.666,44.904 -157.333,44.904c-78.667,0 -78.667,-44.904 -157.292,-44.904c-78.666,-0 -78.666,44.904 -157.333,44.904c-78.708,0 -78.708,-44.904 -157.375,-44.904c-78.666,-0 -78.666,44.904 -157.333,44.904c-78.667,0 -78.667,-44.904 -157.333,-44.904" style="fill:none;stroke:#cecfd8;stroke-width:8.33px;stroke-linejoin:miter;"/><path d="M6629.02,3450.2c-78.667,0 -78.667,-44.875 -157.333,-44.875c-78.667,0 -78.667,44.875 -157.334,44.875c-78.625,0 -78.625,-44.875 -157.291,-44.875c-78.667,0 -78.667,44.875 -157.334,44.875c-78.666,0 -78.666,-44.875 -157.333,-44.875c-78.667,0 -78.667,44.875 -157.333,44.875c-78.667,0 -78.667,-44.875 -157.334,-44.875c-78.666,0 -78.666,44.875 -157.333,44.875c-78.666,0 -78.666,-44.875 -157.333,-44.875c-78.667,0 -78.667,44.875 -157.333,44.875c-78.667,0 -78.667,-44.875 -157.334,-44.875c-78.666,0 -78.666,44.875 -157.333,44.875c-78.667,0 -78.667,-44.875 -157.333,-44.875c-78.667,0 -78.667,44.875 -157.334,44.875c-78.667,0 -78.667,-44.875 -157.333,-44.875c-78.667,0 -78.667,44.875 -157.334,44.875" style="fill:none;stroke:#16161e;stroke-width:8.33px;stroke-linejoin:miter;"/><path d="M7415.48,3405.33c-78.667,0 -78.667,44.875 -157.292,44.875c-78.667,0 -78.667,-44.875 -157.334,-44.875c-78.666,0 -78.666,44.875 -157.375,44.875c-78.666,0 -78.666,-44.875 -157.333,-44.875c-78.667,0 -78.667,44.875 -157.375,44.875c-78.667,0 -78.667,-44.875 -157.333,-44.875" style="fill:none;stroke:#16161e;stroke-width:8.33px;stroke-linejoin:miter;"/><path d="M7149.1,1919.3c-5.916,15.555 -21.083,24.205 -33.875,19.321c-12.791,-4.879 -18.333,-21.445 -12.416,-37c5.958,-15.554 21.125,-24.204 33.916,-19.325c12.792,4.884 18.334,21.45 12.375,37.004Z" style="fill:none;stroke:#16161e;stroke-width:8.33px;stroke-linejoin:miter;"/><path d="M7103.06,1968.15c-28.917,97.038 -33.042,202.334 -33.042,202.334" style="fill:none;stroke:#16161e;stroke-width:8.33px;stroke-linejoin:miter;"/><path d="M7123.73,2189.36l0,-52.138l88.751,0l-0,51.287" style="fill:none;stroke:#16161e;stroke-width:8.33px;stroke-linejoin:miter;"/><path d="M7138.85,2003.94c0,-0 20.625,37.162 19.25,59.183c-1.374,22.025 -9.624,53.679 -9.624,53.679" style="fill:none;stroke:#16161e;stroke-width:8.33px;stroke-linejoin:miter;"/><path d="M7113.4,2110.61l12.375,-138.329l24.542,-14.451c26.833,45.421 41.541,75.93 41.541,105.063c0,29.133 -33.041,76.392 -33.041,76.392" style="fill:none;stroke:#16161e;stroke-width:8.33px;stroke-linejoin:miter;"/><path d="M5354.19,1905.21c2.5,14.654 -4.208,28.237 -15.208,31.967" style="fill:none;stroke:#16161e;stroke-width:8.33px;"/><path d="M5323.02,1903.29c-0,0 -24.541,24.521 -14.042,75.304c10.542,50.788 -12.249,57.796 -29.749,50.788c-17.542,-7.005 -24.542,-43.779 -5.25,-85.813c19.25,-42.029 14.458,-56.396 28,-68.296c19.291,-16.929 47.875,-8.758 52.541,19.846l-31.5,8.171Z" style="fill:none;stroke:#16161e;stroke-width:8.33px;"/><path d="M5318.61,1984.73c-0,0 33.791,66.896 61.625,49.326c16.625,-10.509 -49.334,-100.988 -49.334,-100.988" style="fill:none;stroke:#16161e;stroke-width:8.33px;"/><path d="M5391.85,2174.76l-29.166,-124.359" style="fill:none;stroke:#16161e;stroke-width:8.33px;"/><path d="M5293.23,2041.64l-18.459,134.571" style="fill:none;stroke:#16161e;stroke-width:8.33px;"/><path d="M5309.86,1903.29l22.791,17.513" style="fill:none;stroke:#16161e;stroke-width:8.33px;"/><path d="M5319.52,1938.32l20.125,46.408" style="fill:none;stroke:#16161e;stroke-width:8.33px;"/><path d="M5313.65,2071.42l19.875,22.179" style="fill:none;stroke:#16161e;stroke-width:8.33px;"/><path d="M3889.05,1896.99l57.638,0l37.958,-108.837l-133.566,-0l37.97,108.837Z" style="fill:none;stroke:#16161e;stroke-width:8.33px;stroke-linejoin:miter;"/><path d="M3917.86,1896.21l-0,304.433" style="fill:none;stroke:#16161e;stroke-width:8.33px;stroke-linejoin:miter;"/><path d="M3937.81,2002.63l-39.917,-0" style="fill:none;stroke:#16161e;stroke-width:8.33px;stroke-linejoin:miter;"/><path d="M3993.94,1724.83l-23.5,23.487" style="fill:none;stroke:#16161e;stroke-width:8.33px;stroke-linejoin:miter;"/><path d="M3841.79,1724.83l23.483,23.487" style="fill:none;stroke:#16161e;stroke-width:8.33px;stroke-linejoin:miter;"/><path d="M3914.27,1716.66l0,-36.425" style="fill:none;stroke:#16161e;stroke-width:8.33px;stroke-linejoin:miter;"/><path d="M4818.31,1681.56l57.625,-0l38,-108.842l-133.584,0l37.959,108.842Z" style="fill:none;stroke:#16161e;stroke-width:8.33px;stroke-linejoin:miter;"/><path d="M4847.15,1680.78l0,522.713" style="fill:none;stroke:#16161e;stroke-width:8.33px;stroke-linejoin:miter;"/><path d="M4867.11,1787.2l-39.917,0" style="fill:none;stroke:#16161e;stroke-width:8.33px;stroke-linejoin:miter;"/><path d="M4923.23,1509.4l-23.5,23.488" style="fill:none;stroke:#16161e;stroke-width:8.33px;stroke-linejoin:miter;"/><path d="M4771.06,1509.4l23.5,23.488" style="fill:none;stroke:#16161e;stroke-width:8.33px;stroke-linejoin:miter;"/><path d="M4843.56,1501.23l-0,-36.421" style="fill:none;stroke:#16161e;stroke-width:8.33px;stroke-linejoin:miter;"/><path d="M6649.81,1681.56l57.625,-0l37.958,-108.842l-133.541,0l37.958,108.842Z" style="fill:none;stroke:#16161e;stroke-width:8.33px;stroke-linejoin:miter;"/><path d="M6678.61,1680.78l-0,522.713" style="fill:none;stroke:#16161e;stroke-width:8.33px;stroke-linejoin:miter;"/><path d="M6698.56,1787.2l-39.875,0" style="fill:none;stroke:#16161e;stroke-width:8.33px;stroke-linejoin:miter;"/><path d="M6754.69,1509.4l-23.458,23.488" style="fill:none;stroke:#16161e;stroke-width:8.33px;stroke-linejoin:miter;"/><path d="M6602.56,1509.4l23.458,23.488" style="fill:none;stroke:#16161e;stroke-width:8.33px;stroke-linejoin:miter;"/><path d="M6675.06,1501.23l0,-36.421" style="fill:none;stroke:#16161e;stroke-width:8.33px;stroke-linejoin:miter;"/><path d="M7585.9,1901.15l57.625,0l37.958,-108.841l-133.541,-0l37.958,108.841Z" style="fill:none;stroke:#16161e;stroke-width:8.33px;stroke-linejoin:miter;"/><path d="M7614.69,1900.37l-0,302.958" style="fill:none;stroke:#16161e;stroke-width:8.33px;stroke-linejoin:miter;"/><path d="M7634.65,2006.79l-39.875,-0" style="fill:none;stroke:#16161e;stroke-width:8.33px;stroke-linejoin:miter;"/><path d="M7690.77,1728.99l-23.458,23.487" style="fill:none;stroke:#16161e;stroke-width:8.33px;stroke-linejoin:miter;"/><path d="M7538.65,1728.99l23.458,23.487" style="fill:none;stroke:#16161e;stroke-width:8.33px;stroke-linejoin:miter;"/><path d="M7611.15,1720.82l0,-36.421" style="fill:none;stroke:#16161e;stroke-width:8.33px;stroke-linejoin:miter;"/><path d="M3363.25,2310.37l-431.004,261.104l848.05,0l-417.046,-261.104Z" style="fill:none;stroke:#16161e;stroke-width:8.33px;"/><path d="M3363.25,2310.37l-134.037,261.104" style="fill:none;stroke:#16161e;stroke-width:8.33px;"/><path d="M3499.53,2571.47l-134.033,-261.104l0,-32.871" style="fill:none;stroke:#16161e;stroke-width:8.33px;"/><path d="M2934.07,2571.47c-0,51.359 41.642,92.996 93,92.996c35.746,0 66.733,-20.187 82.304,-49.762c15.571,29.575 46.559,49.762 82.296,49.762c35.746,0 66.733,-20.187 82.304,-49.758c15.563,29.571 46.558,49.758 82.296,49.758c35.746,0 66.733,-20.187 82.304,-49.758c15.571,29.571 46.559,49.758 82.296,49.758c35.742,0 66.733,-20.187 82.304,-49.762c15.571,29.575 46.558,49.762 82.296,49.762c51.362,0 93,-41.637 93,-92.996" style="fill:none;stroke:#16161e;stroke-width:8.33px;"/><path d="M3271.53,2807.43c0,0 -20.183,20.188 -40.371,18.925" style="fill:none;stroke:#16161e;stroke-width:8.33px;stroke-linejoin:miter;"/><path d="M3248.82,2890.63c-0,-0 -3.95,52.579 26.154,72.591c12.163,8.084 45.454,10.05 58.733,9.138" style="fill:none;stroke:#16161e;stroke-width:8.33px;stroke-linejoin:miter;"/><path d="M3224.96,2860.35c-14.254,30.28 -28.75,76.646 -42.888,111.617c-21.375,52.879 23.129,65.671 48.509,73.642c21.966,6.904 61.662,21.75 61.662,21.75c-17.729,52.667 -32.537,125.862 -32.537,125.862" style="fill:none;stroke:#16161e;stroke-width:8.33px;stroke-linejoin:miter;"/><path d="M3285.46,3193.22c-0,0 58.612,-125.862 46.65,-145.987c-8.354,-14.059 -29.138,-26.35 -47.838,-36.804c-22.283,-12.459 -35.629,-15.867 -35.629,-33.034" style="fill:none;stroke:#16161e;stroke-width:8.33px;stroke-linejoin:miter;"/><path d="M3195.15,2902.77c-15.896,-11.712 -20.916,-34.3 5.855,-60.233c26.77,-25.938 25.225,-42.775 47.812,-50.25l6.308,-0c13.238,-0 23.971,15.25 23.971,34.062c0,18.813 -10.733,34.063 -23.971,34.063c-7.662,-0 -14.483,-5.109 -18.875,-13.063" style="fill:none;stroke:#16161e;stroke-width:8.33px;stroke-linejoin:miter;"/><path d="M3132.78,2876.58c29.391,64.05 -11.034,118.254 17.083,159.912c18.912,28.017 74.567,30.867 74.567,30.867" style="fill:none;stroke:#16161e;stroke-width:8.33px;stroke-linejoin:miter;"/><path d="M3189.68,3064.51c1.446,121.962 -39.42,138.142 -39.42,138.142" style="fill:none;stroke:#16161e;stroke-width:8.33px;stroke-linejoin:miter;"/><path d="M3631.55,2890.63c0,-0 -12.92,56.645 -32.854,70.375c-12.025,8.287 -57.858,12.266 -71.137,11.354" style="fill:none;stroke:#16161e;stroke-width:8.33px;stroke-linejoin:miter;"/><path d="M3663.53,2867.99c0,-0 19.146,63.575 26.784,103.983c6.454,34.133 -1.559,54.454 -20.663,64.342c-21.271,11.008 -88.329,36.546 -88.329,36.546l-49.875,119.633" style="fill:none;stroke:#16161e;stroke-width:8.33px;stroke-linejoin:miter;"/><path d="M3502.88,3192.49c0,-0 28.796,-125.925 42.525,-144.883c13.946,-19.263 90.909,-58.471 90.909,-58.471l2.037,-38.021" style="fill:none;stroke:#16161e;stroke-width:8.33px;stroke-linejoin:miter;"/><path d="M3631.75,2857.66c-2.9,1.77 -6.096,2.754 -9.454,2.754c-13.237,-0 -23.971,-15.25 -23.971,-34.063c0,-18.812 6.546,-31.891 21.825,-36.212l5.017,-0.809c35.183,-2.845 43.616,17.088 47.512,31.042c5.746,20.596 -4.025,36.542 -25.175,31.883c-13.4,-3.979 -3.766,-19.925 -9.745,-34.208l-39.434,-1.129" style="fill:none;stroke:#16161e;stroke-width:8.33px;"/><path d="M3732.81,2876.58c-29.392,64.05 11.033,118.254 -17.084,159.912c-18.912,28.017 -74.566,30.867 -74.566,30.867" style="fill:none;stroke:#16161e;stroke-width:8.33px;stroke-linejoin:miter;"/><path d="M3675.92,3064.51c-0.337,28.375 1.75,51.021 5.146,69.071" style="fill:none;stroke:#16161e;stroke-width:8.33px;stroke-linejoin:miter;"/><path d="M3312.63,2995.93l245.387,0" style="fill:none;stroke:#16161e;stroke-width:8.33px;stroke-linejoin:miter;"/><path d="M3412.73,2832.11l-0,15.42" style="fill:none;stroke:#16161e;stroke-width:8.33px;stroke-linejoin:miter;"/><path d="M3435.33,2807.43l5.755,9.492" style="fill:none;stroke:#16161e;stroke-width:8.33px;stroke-linejoin:miter;"/><path d="M3447.28,2839.82l-6.2,7.712" style="fill:none;stroke:#16161e;stroke-width:8.33px;stroke-linejoin:miter;"/><path d="M3430.45,2856.91l5.759,40.533" style="fill:none;stroke:#16161e;stroke-width:8.33px;stroke-linejoin:miter;"/><path d="M3412.73,2972.57l7.97,-72.242l31.009,0l7.975,70.621" style="fill:none;stroke:#16161e;stroke-width:8.33px;stroke-linejoin:miter;"/><path d="M3411.84,3030.24l46.083,-0" style="fill:none;stroke:#16161e;stroke-width:8.33px;stroke-linejoin:miter;"/><path d="M3435.33,3030.24l0,162.25" style="fill:none;stroke:#16161e;stroke-width:8.33px;stroke-linejoin:miter;"/><path d="M3365.5,2664.47l0,278.408" style="fill:none;stroke:#16161e;stroke-width:8.33px;stroke-linejoin:miter;"/><path d="M2033.22,2306.68l-427.946,259.25l842.034,0l-414.088,-259.25Z" style="fill:none;stroke:#16161e;stroke-width:8.33px;"/><path d="M2033.22,2306.68l-133.083,259.25" style="fill:none;stroke:#16161e;stroke-width:8.33px;"/><path d="M2168.53,2565.93l-133.084,-259.25l0,-32.079" style="fill:none;stroke:#16161e;stroke-width:8.33px;"/><path d="M1607.08,2565.93c0,51 41.346,92.342 92.342,92.342c35.492,0 66.259,-20.046 81.721,-49.408c15.458,29.362 46.229,49.408 81.712,49.408c35.492,0 66.259,-20.046 81.721,-49.408c15.455,29.362 46.23,49.408 81.713,49.408c35.492,0 66.258,-20.046 81.721,-49.408c15.458,29.362 46.225,49.408 81.712,49.408c35.492,0 66.258,-20.046 81.717,-49.408c15.462,29.362 46.229,49.408 81.716,49.408c51,0 92.338,-41.342 92.338,-92.342" style="fill:none;stroke:#16161e;stroke-width:8.33px;"/><path d="M2203.88,3183.93l-0,-144.229l117.204,0l-0,-150.35" style="fill:none;stroke:#16161e;stroke-width:8.33px;"/><path d="M1894.6,3183.93l0,-144.229l-117.204,0l0,-150.35" style="fill:none;stroke:#16161e;stroke-width:8.33px;"/><path d="M2273.15,3072.72l35.438,109.721" style="fill:none;stroke:#16161e;stroke-width:8.33px;"/><path d="M1825.74,3072.72l-35.438,109.721" style="fill:none;stroke:#16161e;stroke-width:8.33px;"/><path d="M2143.61,2830.74l13.337,40.246" style="fill:none;stroke:#16161e;stroke-width:8.33px;stroke-linejoin:miter;"/><path d="M2133.64,2945.58l7.916,-71.729l30.788,0l7.917,70.121" style="fill:none;stroke:#16161e;stroke-width:8.33px;stroke-linejoin:miter;"/><path d="M1842.34,2968.77l386.258,0" style="fill:none;stroke:#16161e;stroke-width:8.33px;stroke-linejoin:miter;"/><path d="M2012.15,3002.84l45.759,0" style="fill:none;stroke:#16161e;stroke-width:8.33px;stroke-linejoin:miter;"/><path d="M2035.47,3002.84l0,161.1" style="fill:none;stroke:#16161e;stroke-width:8.33px;stroke-linejoin:miter;"/><path d="M2035.45,2658.27l0,276.433" style="fill:none;stroke:#16161e;stroke-width:8.33px;stroke-linejoin:miter;"/><path d="M2153.16,2863.97l33.641,-70.95" style="fill:none;stroke:#16161e;stroke-width:8.33px;stroke-linejoin:miter;"/><path d="M2168.53,2823.47l-30.755,-26.987" style="fill:none;stroke:#16161e;stroke-width:8.33px;stroke-linejoin:miter;"/><path d="M579.004,2740.66c0,147.587 -80.604,267.233 -180.033,267.233c-99.429,-0 -180.033,-119.646 -180.033,-267.233c-0,-147.588 80.604,-267.229 180.033,-267.229c99.429,-0 180.033,119.641 180.033,267.229Z" style="fill:#ff6900;fill-rule:nonzero;"/><path d="M395.117,3206.05l-0,-367.05" style="fill:none;stroke:#16161e;stroke-width:8.33px;stroke-linejoin:miter;"/><path d="M321.254,2856.05c0,109.234 -69.829,197.779 -155.97,197.779c-86.138,0 -155.967,-88.545 -155.967,-197.779c-0,-109.229 69.829,-197.775 155.967,-197.775c86.141,0 155.97,88.546 155.97,197.775Z" style="fill:none;stroke:#16161e;stroke-width:8.33px;stroke-linejoin:miter;"/><path d="M161.946,3206.05l0,-323.008" style="fill:none;stroke:#16161e;stroke-width:8.33px;stroke-linejoin:miter;"/><path d="M3230.58,2389.28l-972.717,-0" style="fill:none;stroke:#16161e;stroke-width:8.33px;stroke-linejoin:miter;"/><path d="M4027.44,2389.28l-538.15,-0" style="fill:none;stroke:#16161e;stroke-width:8.33px;stroke-linejoin:miter;"/><path d="M4086.73,2545.21c-15.254,22.921 -14.916,53.937 3.084,76.729c17.958,22.792 48.041,30.371 73.875,20.871l-76.959,-97.6Z" style="fill:#cecfd8;fill-rule:nonzero;"/><path d="M7514.94,2702.62c-15.292,22.917 -14.917,53.938 3.041,76.729c18.001,22.792 48.084,30.367 73.917,20.867l-76.958,-97.596Z" style="fill:#cecfd8;fill-rule:nonzero;"/><path d="M3161.61,2819.79c-17.554,-21.209 -47.363,-29.796 -74.367,-19.142c-27,10.658 -42.912,37.283 -41.254,64.767l115.621,-45.625Z" style="fill:#ff6900;fill-rule:nonzero;"/><path d="M7978.35,2589.47c-17.583,-21.208 -47.375,-29.796 -74.375,-19.142c-26.999,10.655 -42.916,37.284 -41.25,64.767l115.625,-45.625Z" style="fill:#ff6900;fill-rule:nonzero;"/><path d="M8032.77,2006.28c1.667,-0.2 3.292,-0.6 4.917,-1.213c10.167,-3.883 15.75,-15.196 14.541,-27.492" style="fill:none;stroke:#16161e;stroke-width:8.33px;stroke-linejoin:miter;"/><path d="M8054.61,2252.51l8.208,135.75" style="fill:none;stroke:#16161e;stroke-width:8.33px;stroke-linejoin:miter;"/><path d="M7993.65,2284.33l-96.875,103.934" style="fill:none;stroke:#16161e;stroke-width:8.33px;stroke-linejoin:miter;"/><path d="M7986.65,2052.41c-16.458,30.529 -25.291,53.908 -25.291,76.462c-0,21.896 22.249,52.054 33.166,65.546c3.042,3.775 8.75,3.933 12.042,0.363c2.333,-2.55 2.792,-6.313 1.083,-9.33c-6.083,-10.729 -19.708,-36.391 -20.75,-53.37c-1.375,-21.942 16.917,-52.442 16.917,-52.442" style="fill:none;stroke:#16161e;stroke-width:8.33px;stroke-linejoin:miter;"/><path d="M7949.69,2138.84l-11.875,-0l-0,84.583l135.333,0l0,-84.583l-60.875,-0" style="fill:none;stroke:#16161e;stroke-width:8.33px;stroke-linejoin:miter;"/><path d="M8036.77,2135.46c0,-0 -2.833,-49.263 -18.417,-82.563" style="fill:none;stroke:#16161e;stroke-width:8.33px;stroke-linejoin:miter;"/><path d="M8046.1,2385.82l-20.333,-133.637" style="fill:none;stroke:#16161e;stroke-width:8.33px;stroke-linejoin:miter;"/><path d="M7895.52,2362.14l79.542,-104.879" style="fill:none;stroke:#16161e;stroke-width:8.33px;stroke-linejoin:miter;"/><path d="M7933.23,2268.01c9.375,-11.75 27.291,-15.629 40.708,-8.796c6.625,3.383 12.291,9.075 19.667,10.188c16.583,2.52 28.083,-18.95 44.833,-20.346c8.958,-0.75 17.208,4.483 25.333,8.366c8.167,3.88 18.584,6.292 25.625,0.675" style="fill:none;stroke:#16161e;stroke-width:8.33px;stroke-linejoin:miter;"/><path d="M7968.27,2040.73c-11.792,-9.45 -16.625,-25.375 -0.833,-42.291c15.792,-16.913 18.333,-42.288 25.083,-51.313c6.75,-9.021 18.959,-18.579 34.959,-16.35c22.291,3.1 38.083,29.604 23.666,38.063c-12.792,7.541 -37.458,-1.413 -39.75,15.221c-2.25,16.637 22.834,47.366 -2.541,61.746c-16.001,9.087 -34.959,-0.563 -40.584,-5.076Z" style="fill:none;stroke:#16161e;stroke-width:8.33px;stroke-linejoin:miter;"/><path d="M8032.56,2033.96c1.667,21.146 19.458,37.346 22,50.75c2.541,13.533 -4.25,29.604 -5.083,43.983" style="fill:none;stroke:#16161e;stroke-width:8.33px;stroke-linejoin:miter;"/><path d="M8918.77,3127.84l0,79.446" style="fill:none;stroke:#16161e;stroke-width:8.33px;stroke-linejoin:miter;"/><path d="M8561.27,2962.26l325.209,-0c16.583,-0 30.083,13.466 30.083,30.071l-0,93.929" style="fill:none;stroke:#16161e;stroke-width:8.33px;stroke-linejoin:miter;"/><path d="M8593.98,3086.26l377.499,-0l0,40.091l-365.291,0" style="fill:none;stroke:#16161e;stroke-width:8.33px;stroke-linejoin:miter;"/><path d="M6861.73,626.263c88.375,-35.425 186.251,-46.838 280.376,-32.692c37.625,5.654 86.708,9.854 103.125,-24.483c4.916,-10.283 5.416,-22.171 9.708,-32.725c14.583,-35.746 77.541,-39.554 89.666,2.966c3.876,13.655 16.334,23.821 30.417,22.026c16.458,-2.105 17.584,-20.013 23.167,-33.096c13.083,-30.63 57.333,-36.163 86.167,-19.459c28.791,16.709 28.791,46.375 57.999,38.7c29.25,-7.671 29.001,-63.383 56.334,-108.054c17.5,-28.633 45.25,-58.446 82.625,-41.262c8.583,3.929 16,9.933 22.375,16.866c36.708,39.921 69.167,94.496 58.958,147.705c-12.917,67.141 -102.25,111.812 -208.333,111.812c-154.542,21.563 -630.75,-30.079 -954.709,-7.979" style="fill:none;stroke:#d1d2dc;stroke-width:8.33px;"/><path d="M3940.65,788.784c198.042,23.141 302.959,-14.75 454.084,-15.109c46.791,-0.108 93.583,-0.216 140.374,-0.329c74.792,-0.175 149.709,-0.354 224.292,-6.433c8.125,-19.15 -17.666,-36.075 -38.458,-35.496c-20.792,0.575 -43.125,8.467 -61.375,-1.525c-10.334,-5.667 -17.042,-16.075 -25.584,-24.221c-24.791,-23.671 -67.374,-25.504 -94.125,-4.054c-7.375,5.908 -14.916,13.779 -24.333,12.938c-6.25,-0.555 -11.375,-4.946 -15.833,-9.355c-30.334,-30.129 -54.833,-74.383 -97.417,-78.437c-48.792,-4.646 -81.667,67.737 -92.958,69.483c-11.292,1.746 -32.875,-33.212 -68.042,-45.175c-29.167,-9.908 -63.708,1.008 -84.083,24.063c-2.917,3.333 -5.875,7.096 -10.167,8.333c-8.708,2.525 -16.083,-6.45 -20.792,-14.196c-20.541,-33.858 -44.379,-68.579 -80.458,-84.833c-36.125,-16.258 -81.708,-2.546 -100.791,32.154c-15.417,27.992 -9.251,84.575 -35.084,88.263c-25.833,3.691 -60.271,-35.671 -94.712,-22.138c-34.438,13.529 -52.888,71.337 -81.18,71.337" style="fill:none;stroke:#d1d2dc;stroke-width:8.33px;"/><path d="M4107.86,450.425c-0,59.78 48.458,108.238 108.25,108.238c59.749,-0 108.25,-48.458 108.25,-108.238c-0,-59.779 -48.501,-108.237 -108.25,-108.237c-59.792,-0 -108.25,48.458 -108.25,108.237Z" style="fill:none;stroke:#d1d2dc;stroke-width:8.33px;stroke-linejoin:miter;"/><path d="M6829.19,395.63l-30.208,30.229l-38.292,-38.292" style="fill:none;stroke:#d1d2dc;stroke-width:8.33px;stroke-linejoin:miter;"/><path d="M4991.73,552.809l-30.209,30.229l-38.292,-38.288" style="fill:none;stroke:#d1d2dc;stroke-width:8.33px;stroke-linejoin:miter;"/><path d="M5609.77,1179.37l-18.125,18.138l-36.292,-36.275" style="fill:none;stroke:#d1d2dc;stroke-width:8.33px;stroke-linejoin:miter;"/><path d="M5591.35,1601.84c-35,-114.204 40.834,-195.35 116.625,-175.184c75.792,20.167 128.25,140.271 128.25,156.017c0,0 40.834,-80.746 116.625,-87.892c75.792,-7.145 99.126,77.976 139.959,87.892c40.791,9.917 82.708,-37.683 128.25,-37.683c84.375,-0 104.083,83.55 177.417,80.15" style="fill:none;stroke:#d1d2dc;stroke-width:8.33px;"/><path d="M5448.6,1654.33c168.417,-3.904 396.959,31.225 519.459,0" style="fill:none;stroke:#d1d2dc;stroke-width:8.33px;"/><path d="M3088,3203.43c0.092,-0.555 0.184,-1.109 0.213,-1.671c4.3,0.5 8.896,-0.888 12.129,-5.121c18.425,-24.15 28.938,-61.621 1.187,-83.8c-6.549,-5.238 -13.537,-7.117 -21.679,-8.5c-8.154,-1.388 -15.725,-0.821 -19.9,-9.079c-6.025,-11.917 -2.983,-28.879 -1.862,-41.521c5.508,-61.942 -26.075,-142.854 -96.838,-150.571c-31.375,-3.421 -56.787,15.304 -68.921,43.354c-12.45,28.788 -10.55,61.171 -22.516,90.025c-6.408,15.446 -17.313,29.363 -35.104,30.771c-19.034,1.5 -37.259,-8.983 -55.75,-11.85c-29.375,-4.554 -57.813,5.667 -65.096,36.546c-2.358,9.992 -3.704,16.937 -14.121,20.521c-8.858,3.05 -18.838,2.712 -28.079,2.925c-16.854,0.383 -32.604,2.55 -48.238,9.133c-30.387,12.8 -54.908,39.029 -54.404,73.463c0.025,1.825 0.554,3.666 1.4,5.375l517.579,-0Z" style="fill:#ff6900;fill-rule:nonzero;"/><path d="M2948.98,3198.58l26.704,-89.816l18.204,-69.183" style="fill:none;stroke:#16161e;stroke-width:8.33px;stroke-linejoin:miter;"/><path d="M2973.26,3103.91l-27.917,-74.042" style="fill:none;stroke:#16161e;stroke-width:8.33px;stroke-linejoin:miter;"/><path d="M3848.28,2731.32c-4.233,24.713 7.525,50.396 30.909,62.721c23.379,12.329 51.212,7.517 69.212,-9.938l-100.121,-52.783Z" style="fill:#ff6900;fill-rule:nonzero;"/><path d="M7808.86,2874.08c-4.25,24.712 7.499,50.395 30.874,62.721c23.417,12.329 51.25,7.516 69.209,-9.938l-100.083,-52.783Z" style="fill:#ff6900;fill-rule:nonzero;"/><path d="M2564.28,2308.85c0,44.534 -36.1,80.63 -80.629,80.63c-44.533,-0 -80.633,-36.096 -80.633,-80.63c-0,-44.529 36.1,-80.629 80.633,-80.629c44.529,0 80.629,36.1 80.629,80.629Z" style="fill:none;stroke:#16161e;stroke-width:8.33px;stroke-linejoin:miter;"/><path d="M2809.23,2308.85c-0,44.534 -36.101,80.63 -80.63,80.63c-44.529,-0 -80.629,-36.096 -80.629,-80.63c0,-44.529 36.1,-80.629 80.629,-80.629c44.529,0 80.63,36.1 80.63,80.629Z" style="fill:none;stroke:#16161e;stroke-width:8.33px;stroke-linejoin:miter;"/><path d="M2483.65,2308.85l55.954,-154.108c0,0 -9.458,-14.192 -9.458,-27.2c0,-13.008 16.554,-17.737 16.554,-17.737" style="fill:none;stroke:#16161e;stroke-width:8.33px;stroke-linejoin:miter;"/><path d="M2525.41,2197.91c24.833,17.737 47.008,24.833 78.05,94.016c7.096,15.963 14.191,33.109 44.937,35.475l80.2,-18.546" style="fill:none;stroke:#16161e;stroke-width:8.33px;stroke-linejoin:miter;"/><path d="M2651.36,2042.7c-0,13.225 -7.546,23.95 -16.855,23.95c-9.304,0 -16.85,-10.725 -16.85,-23.95c0,-13.225 7.546,-23.946 16.85,-23.946c9.309,0 16.855,10.721 16.855,23.946Z" style="fill:none;stroke:#16161e;stroke-width:8.33px;stroke-linejoin:miter;"/><path d="M2622.97,2029.39c0,0 14.192,14.192 28.384,13.304" style="fill:none;stroke:#16161e;stroke-width:8.33px;stroke-linejoin:miter;"/><path d="M2646.04,2018.75c-0,0 8.866,-5.321 19.508,3.546c10.646,8.871 10.646,31.929 28.384,31.929" style="fill:none;stroke:#16161e;stroke-width:8.33px;stroke-linejoin:miter;"/><path d="M2638.05,2087.93c0,0 -2.662,36.367 -24.833,48.784c-15.908,8.904 -43.187,2.029 -55.879,-1.775" style="fill:none;stroke:#16161e;stroke-width:8.33px;stroke-linejoin:miter;"/><path d="M2651.36,2071.97c31.041,8.867 52.083,49.492 58.537,74.5c14.188,54.992 -85.146,58.537 -85.146,58.537l8.867,81.596" style="fill:none;stroke:#16161e;stroke-width:8.33px;stroke-linejoin:miter;"/><path d="M2612.33,2260c-0,0 -31.93,-56.767 -17.738,-76.279c14.188,-19.513 69.179,-28.379 69.179,-28.379" style="fill:none;stroke:#16161e;stroke-width:8.33px;stroke-linejoin:miter;"/><path d="M7358.4,2388.26l1748.71,-0" style="fill:none;stroke:#16161e;stroke-width:8.33px;stroke-linejoin:miter;"/><path d="M9038.94,1811.83c0,153.846 -82.916,278.559 -185.208,278.559c-102.292,-0 -185.208,-124.713 -185.208,-278.559c0,-153.841 82.916,-278.558 185.208,-278.558c102.292,-0 185.208,124.717 185.208,278.558Z" style="fill:#ff6900;fill-rule:nonzero;"/><path d="M8849.77,2385.82l0,-445.475" style="fill:none;stroke:#16161e;stroke-width:8.33px;stroke-linejoin:miter;"/><path d="M8718.52,2033.71c-28.167,33.779 -64.959,54.229 -105.208,54.229c-88.584,-0 -160.459,-99.179 -160.459,-221.521c0,-122.346 71.875,-221.521 160.459,-221.521c22.167,0 43.25,6.196 62.458,17.404" style="fill:none;stroke:#16161e;stroke-width:8.33px;stroke-linejoin:miter;"/><path d="M8609.9,2203.49l-0,-205.933" style="fill:none;stroke:#16161e;stroke-width:8.33px;stroke-linejoin:miter;"/><path d="M8481.69,2769.37c-15.999,2.596 -26.207,-0 -28.332,-25.638l-0.501,-17.904" style="fill:none;stroke:#16161e;stroke-width:8.33px;"/><path d="M8441.56,3052.14l-44.75,148.191" style="fill:none;stroke:#16161e;stroke-width:8.33px;"/><path d="M8600.48,3195.55l-60.5,-130.929" style="fill:none;stroke:#16161e;stroke-width:8.33px;"/><path d="M8486.77,2726.91l-33.918,-2.396c0,-8.863 7.954,-27.808 33.083,-30.579c42.001,-4.634 51.376,68.754 51.376,68.754l-37.333,13.729l-13.208,-49.508Z" style="fill:none;stroke:#16161e;stroke-width:8.33px;"/><path d="M8492.06,2804.87c-4.958,5.967 -10.375,16.408 -14.166,34.667l-7.874,45.05l-62.959,39.462" style="fill:none;stroke:#16161e;stroke-width:8.33px;"/><path d="M8516.94,2788.51c9.292,30.821 2.416,60.675 2.416,107.621l29.042,153.633l-133.379,-0l39.046,-130.625" style="fill:none;stroke:#16161e;stroke-width:8.33px;"/><path d="M8467.73,2810.36c-0,-0 -19.792,20.645 -23.708,31.791c-0,0 4.958,13.342 11.874,22.321" style="fill:none;stroke:#16161e;stroke-width:8.33px;"/><path d="M8128.56,3190.24l1.416,-26.129l25.751,-36.079l-18.834,-43.259l-16.625,-13.579c0,0 -25.792,0.771 -35.833,-2.575c-10.083,-3.346 -8.834,-17.358 -8.834,-17.358l24.542,-5.288l6.584,-12.125l16.874,-6.195l13.084,26.833" style="fill:none;stroke:#16161e;stroke-width:8.33px;"/><path d="M8150.31,3041.12l25.25,20.8l119.542,22.167c22.037,15.1 24.75,52.291 35.578,66.771" style="fill:none;stroke:#16161e;stroke-width:8.33px;"/><path d="M8172.65,3130.09c50.667,-0 69.667,-19.883 96.125,-17.342c0,0 13.667,42.938 47.458,58.625l0,35.658" style="fill:none;stroke:#16161e;stroke-width:8.33px;"/><path d="M8183.86,3160.52l7.875,44.858" style="fill:none;stroke:#16161e;stroke-width:8.33px;"/><path d="M8273.19,3160.52l-8.834,35.033" style="fill:none;stroke:#16161e;stroke-width:8.33px;"/><path d="M8295.1,3084.09c-0,-0 21.792,-0 21.124,-31.95" style="fill:none;stroke:#16161e;stroke-width:8.33px;"/><path d="M8136.9,3084.78l38.667,-22.854c0,0 119.542,-34.266 221.25,-129.471" style="fill:none;stroke:#16161e;stroke-width:8.33px;"/><path d="M8519.35,2896.13l-31.5,-0" style="fill:none;stroke:#16161e;stroke-width:8.33px;"/><path d="M10135.3,3207.77c-11.584,-33.842 -43.583,-58.212 -81.334,-58.212c-4.291,-0 -8.458,0.416 -12.583,1.021c-8.791,-76.271 -73.541,-135.501 -152.167,-135.501c-63.541,0 -118.082,38.675 -141.291,93.767c-21.459,-19.012 -49.708,-30.575 -80.625,-30.575c-28.917,0 -55.459,10.113 -76.375,26.967c-24.959,-40.904 -70.042,-68.208 -121.459,-68.208c-78.582,-0 -142.291,63.704 -142.291,142.283c0,9.746 0.958,19.262 2.833,28.458l805.292,0Z" style="fill:#ff6900;fill-rule:nonzero;"/><path d="M12048,3411.66l-4515,-0" style="fill:none;stroke:#16161e;stroke-width:8.33px;stroke-linejoin:miter;"/><path d="M85.079,3206.05l3908.86,0l70.829,70.813l-0,128.466" style="fill:none;stroke:#16161e;stroke-width:8.33px;stroke-linejoin:miter;"/><path d="M85.079,3409.95l3908.86,0" style="fill:none;stroke:#16161e;stroke-width:8.33px;stroke-linejoin:miter;"/><path d="M11705.6,3207.77l-4172.62,0l-61.208,61.217l0,136.337" style="fill:none;stroke:#16161e;stroke-width:8.33px;stroke-linejoin:miter;"/><path d="M6207.86,199.704c-0,105.151 -83.834,190.388 -187.251,190.388c-103.416,-0 -187.249,-85.237 -187.249,-190.388c-0,-105.149 83.833,-190.387 187.249,-190.387c103.417,-0 187.251,85.238 187.251,190.387Z" style="fill:none;stroke:#cecfd8;stroke-width:8.33px;stroke-linejoin:miter;"/><path d="M6046.19,556.109l-51.125,-0l-15.833,-75.542l82.75,0l-15.792,75.542Z" style="fill:none;stroke:#cecfd8;stroke-width:8.33px;stroke-linejoin:miter;"/><path d="M6117.69,362.538l-55.708,118.029" style="fill:none;stroke:#cecfd8;stroke-width:8.33px;stroke-linejoin:miter;"/><path d="M5979.23,480.567l-55.709,-118.029" style="fill:none;stroke:#cecfd8;stroke-width:8.33px;stroke-linejoin:miter;"/><path d="M5984.73,386.58l15.292,93.987" style="fill:none;stroke:#cecfd8;stroke-width:8.33px;stroke-linejoin:miter;"/><path d="M6054.81,386.58l-15.25,93.987" style="fill:none;stroke:#cecfd8;stroke-width:8.33px;stroke-linejoin:miter;"/><path d="M7562.85,1075.76c0,105.146 -85.249,190.387 -190.375,190.387c-105.166,0 -190.416,-85.241 -190.416,-190.387c-0,-105.15 85.25,-190.392 190.416,-190.392c105.126,0 190.375,85.242 190.375,190.392Z" style="fill:#ff6900;fill-rule:nonzero;"/><path d="M7398.44,1432.17l-51.959,-0l-16.083,-75.542l84.125,0l-16.083,75.542Z" style="fill:none;stroke:#16161e;stroke-width:8.33px;stroke-linejoin:miter;"/><path d="M7482.98,1214.02l-68.458,142.604" style="fill:none;stroke:#16161e;stroke-width:8.33px;stroke-linejoin:miter;"/><path d="M7330.4,1356.62l-68.458,-142.604" style="fill:none;stroke:#16161e;stroke-width:8.33px;stroke-linejoin:miter;"/><path d="M7327.94,1214.02l23.583,142.604" style="fill:none;stroke:#16161e;stroke-width:8.33px;stroke-linejoin:miter;"/><path d="M7415.27,1214.02l-23.541,142.604" style="fill:none;stroke:#16161e;stroke-width:8.33px;stroke-linejoin:miter;"/><path d="M1314.73,2982.64c21.958,21.958 14.525,64.991 14.525,64.991c-0,0 -43.03,7.43 -64.988,-14.529c-21.958,-21.958 -14.529,-64.987 -14.529,-64.987c-0,-0 43.033,-7.433 64.992,14.525Z" style="fill:#ff6900;fill-rule:nonzero;"/><path d="M1488.23,2958.19c14.359,-14.358 42.5,-9.5 42.5,-9.5c0,0 4.859,28.142 -9.5,42.5c-14.358,14.358 -42.496,9.496 -42.496,9.496c0,-0 -4.862,-28.138 9.496,-42.496Z" style="fill:#ff6900;fill-rule:nonzero;"/><path d="M1631.08,2995.08c14.359,-14.358 42.496,-9.495 42.496,-9.495c0,-0 4.863,28.137 -9.495,42.495c-14.359,14.359 -42.501,9.5 -42.501,9.5c0,0 -4.858,-28.141 9.5,-42.5Z" style="fill:#ff6900;fill-rule:nonzero;"/><path d="M1242.33,3206.05l-18.709,-117.125l484.692,0l-18.704,117.125" style="fill:none;stroke:#16161e;stroke-width:8.33px;"/><path d="M1358.28,2954.77l-10.829,19.921" style="fill:none;stroke:#16161e;stroke-width:8.33px;"/><path d="M1396.17,2974.69l12.629,10.1" style="fill:none;stroke:#16161e;stroke-width:8.33px;"/><path d="M1557.58,3001.48l11.6,-16.687" style="fill:none;stroke:#16161e;stroke-width:8.33px;"/><path d="M1369.1,3011.58l19.846,-0" style="fill:none;stroke:#16161e;stroke-width:8.33px;"/><path d="M1531.52,3031.28l26.067,0" style="fill:none;stroke:#16161e;stroke-width:8.33px;"/><path d="M1425.05,3007.87l16.225,81.05" style="fill:none;stroke:#16161e;stroke-width:8.33px;"/><path d="M1491.32,3023.97l-0,64.954" style="fill:none;stroke:#16161e;stroke-width:8.33px;"/><path d="M1589.83,3031.28l8.425,57.646" style="fill:none;stroke:#16161e;stroke-width:8.33px;"/><path d="M1347.51,3161.32l38.425,-27.667l38.441,27.667l38.438,-27.667l38.441,27.667l38.434,-27.667l38.433,27.667" style="fill:none;stroke:#d1d2dc;stroke-width:8.33px;stroke-linejoin:miter;"/><path d="M3546.06,2076.79c-0,-0 8.45,16.783 6.654,29.7" style="fill:none;stroke:#16161e;stroke-width:8.33px;"/><path d="M3526.78,2095.24l19.28,-18.45c-0,-0 -21.913,-26.712 -37.75,-0.321c-13.867,23.108 7.483,39.621 7.483,39.621" style="fill:none;stroke:#16161e;stroke-width:8.33px;"/><path d="M3524.43,2133.28l64.413,-34.763l40.833,-61.379" style="fill:none;stroke:#16161e;stroke-width:8.33px;"/><path d="M3549.51,2251.41l-8.534,40.999l-45.095,-6.299l8.875,-40.192l7.579,-31.417c-0,0 -6.063,-52.883 -3.858,-66.104c2.204,-13.221 7.162,-20.933 7.162,-20.933" style="fill:none;stroke:#16161e;stroke-width:8.33px;"/><path d="M3581.71,2284.02c-0,0 -7.709,-46.862 -13.184,-69.525l-40.029,0" style="fill:none;stroke:#16161e;stroke-width:8.33px;"/><path d="M3516.74,2290.98l-9.688,96.212" style="fill:none;stroke:#16161e;stroke-width:8.33px;"/><path d="M3543.18,2371.7l24.266,-63.692l-3.583,-18.838" style="fill:none;stroke:#16161e;stroke-width:8.33px;"/><path d="M3570.16,2200.54l2.937,-48.975c0,0 1.471,-21.538 -2.937,-24.108" style="fill:none;stroke:#16161e;stroke-width:8.33px;"/><path d="M3578.12,2134.82l41.375,-28.729l1.65,-38.342" style="fill:none;stroke:#16161e;stroke-width:8.33px;"/><path d="M3857.95,1852.42c-9.796,1.759 -19.562,3.65 -29.308,5.709c-49.683,10.479 -101.542,29.166 -134.713,69.645c-13.05,15.926 -35.612,50.188 -54.566,86.767" style="fill:none;stroke:#cecfd8;stroke-width:8.33px;stroke-linejoin:miter;"/><path d="M4825.19,1299.23c-92.375,46.826 -186.125,94.667 -263.375,164.85c-69.583,63.238 -121.333,142.771 -186.584,210.092c-71.458,73.721 -158.416,115.733 -257.916,138.075c-43.796,9.838 -88.208,16.079 -132.667,21.904" style="fill:none;stroke:#cecfd8;stroke-width:8.33px;stroke-linejoin:miter;"/><path d="M4818.02,1335.72l293,-245.537l-100.75,-235.046l-235.042,100.725l42.792,379.858Z" style="fill:#ff6900;fill-rule:nonzero;"/><path d="M4761.27,950.059l182,72.962l74.292,-185.037" style="fill:none;stroke:#16161e;stroke-width:8.33px;"/><path d="M5124.77,1095.68l-181.625,-72.658l-125.125,312.7" style="fill:none;stroke:#16161e;stroke-width:8.33px;"/><path d="M8097.52,2315.85l135.25,0" style="fill:none;stroke:#16161e;stroke-width:8.33px;stroke-linejoin:miter;"/><path d="M7976.9,1919.25l0,-62.371" style="fill:none;stroke:#16161e;stroke-width:8.33px;stroke-linejoin:miter;"/><path d="M8417.98,1856.88l-505.709,0l0,-69.512l505.709,-0" style="fill:none;stroke:#16161e;stroke-width:8.33px;stroke-linejoin:miter;"/><path d="M7976.9,1787.36l0,-208.125l42.167,-42.171l-0,-1140.78l165.292,-0l-0,-113.575l133.124,-0l0,113.575l156.292,-0" style="fill:none;stroke:#16161e;stroke-width:8.33px;stroke-linejoin:miter;"/><path d="M9168.6,1012.02l-0,-615.729l-165.25,-0l-0,-113.575l-373.334,-0l0,113.575l-156.25,-0" style="fill:none;stroke:#16161e;stroke-width:8.33px;stroke-linejoin:miter;"/><path d="M9464.52,884.525l0,-488.237l-165.249,-0l-0,-113.575l-271.209,-0" style="fill:none;stroke:#16161e;stroke-width:8.33px;stroke-linejoin:miter;"/><path d="M7957.15,477.642l1549.54,-0" style="fill:none;stroke:#16161e;stroke-width:8.33px;stroke-linejoin:miter;"/><rect x="8137.65" y="624.425" width="74.292" height="74.279" style="fill:#d1d2dc;fill-rule:nonzero;"/><rect x="8341.69" y="624.425" width="74.287" height="74.279" style="fill:#d1d2dc;fill-rule:nonzero;"/><rect x="8545.73" y="624.425" width="74.25" height="74.279" style="fill:#d1d2dc;fill-rule:nonzero;"/><rect x="8749.77" y="624.425" width="74.25" height="74.279" style="fill:#d1d2dc;fill-rule:nonzero;"/><rect x="8953.81" y="624.425" width="74.25" height="74.279" style="fill:#d1d2dc;fill-rule:nonzero;"/><rect x="8137.65" y="859.196" width="74.292" height="74.279" style="fill:#d1d2dc;fill-rule:nonzero;"/><rect x="8545.73" y="859.196" width="74.25" height="74.279" style="fill:#d1d2dc;fill-rule:nonzero;"/><rect x="8749.77" y="859.196" width="74.25" height="74.279" style="fill:#d1d2dc;fill-rule:nonzero;"/><rect x="8953.81" y="859.196" width="74.25" height="74.279" style="fill:#d1d2dc;fill-rule:nonzero;"/><rect x="8137.65" y="1093.97" width="74.292" height="74.279" style="fill:#d1d2dc;fill-rule:nonzero;"/><rect x="8545.73" y="1093.97" width="74.25" height="74.279" style="fill:#d1d2dc;fill-rule:nonzero;"/><rect x="8749.77" y="1093.97" width="74.25" height="74.279" style="fill:#d1d2dc;fill-rule:nonzero;"/><rect x="8953.81" y="1093.97" width="74.25" height="74.279" style="fill:#d1d2dc;fill-rule:nonzero;"/><path d="M9299.27,396.288l-130.667,-0" style="fill:none;stroke:#16161e;stroke-width:8.33px;stroke-linejoin:miter;"/><path d="M8317.48,282.713l54.417,-0l0,113.575" style="fill:none;stroke:#16161e;stroke-width:8.33px;stroke-linejoin:miter;"/><path d="M8493.48,1377.15l-118.624,0l-0,37.771l-118.584,-0l0,-37.771l-118.625,0" style="fill:none;stroke:#cecfd8;stroke-width:8.33px;stroke-linejoin:miter;"/><path d="M8991.56,1377.15l-118.625,0l-0,37.771l-118.583,-0l-0,-37.771l-118.625,0" style="fill:none;stroke:#cecfd8;stroke-width:8.33px;stroke-linejoin:miter;"/></svg>